<?xml version="1.0" encoding="utf-8"?>
<!-- Generator: Adobe Illustrator 20.1.0, SVG Export Plug-In . SVG Version: 6.00 Build 0)  -->
<svg version="1.1" id="Layer_1" xmlns="http://www.w3.org/2000/svg" xmlns:xlink="http://www.w3.org/1999/xlink" x="0px" y="0px"
	 viewBox="0 0 558.1 325.1" style="enable-background:new 0 0 558.1 325.1;" xml:space="preserve">
<style type="text/css">
	.st0{fill:#F4822B;}
	.st1{fill:#FFFFFF;}
	.st2{fill:#3AAD04;}
	.st3{fill:#F70606;}
	.st4{fill:#F9D003;}
	.st5{fill:#2F5EF4;}
</style>
<g>
	<path d="M484.8,180L484.8,180l-0.2-0.1c-22.9-11.8-40.7-18.2-54.7-20.7c-5.7-5.6-12.2-10.5-18.8-14.7c-3.5-2.2-7-4.3-10.4-6.1
		l3.3-8l0.7-1.7c0.1-0.3-0.2-0.8-0.8-1L376,116.3c-0.6-0.2-1.2-0.2-1.3,0.2l-0.7,1.7l-3,7.2c-3.7-1.3-6-2-6-2
		c-37.2-11.4-72.2-9.1-100.1-2.6l-3.1-9.6l-0.6-1.7c-0.1-0.3-0.7-0.5-1.3-0.3l-28.5,9.2c-0.6,0.2-1,0.6-0.9,1l0.6,1.7l3,9.2
		c-18.6,7.2-30.2,14.5-31.7,15.4c-9.1,5-17.6,9.1-25.4,12.5c6-11.7,10.3-23.6,11.8-35.5c2.1-16.6-1.4-33.2-12.9-48l-0.1-0.1
		l-0.1-0.1c-0.1-0.1-4.1-4.3-10.6-8.4c-7.3-4.6-17.9-9.4-30.1-8.1c-5.4,0.6-11,2.4-16.7,5.9l-6.7-6.7l-1.3-1.3
		c-0.3-0.2-0.8-0.1-1.3,0.4L87.9,77.3c-0.4,0.4-0.6,1-0.4,1.3l1.3,1.3l7.6,7.6c-3.6,6-7.1,13-10.5,21.2c-3.3,8.1-5.1,19.4-3.7,30.6
		l-9.4,4.5l-1.6,0.8c-0.3,0.2-0.4,0.7-0.1,1.3l13.1,27c0.3,0.6,0.8,0.9,1.1,0.8l1.6-0.8l10-4.8c1,0.8,2.1,1.7,3.3,2.4
		c9.1,5.8,21.9,8.3,39,5.7c7-1.1,14.8-3,23.3-5.9C137,209.4,93.8,245,73.6,260.3c-6.8,5.2-11,8.1-11,8.1l3.5,5.1
		c0.1-0.1,24.6-17.1,51.7-42.5l6,6.3l1.2,1.3c0.2,0.3,0.8,0.1,1.3-0.3l21.8-20.6c0.5-0.4,0.6-1,0.4-1.3l-1.2-1.3l-6.7-7.1
		c10.3-11.3,20.2-23.6,28.3-36.2c1.1-1.7,2.1-3.3,3.1-5c4.2-1.7,8.7-3.6,13.3-5.7l4.7,8.8l0.9,1.6c0.2,0.3,0.8,0.3,1.3,0l26.4-14.2
		c0.6-0.3,0.9-0.8,0.7-1.1l-0.9-1.6l-4.5-8.4c1.3-0.7,2.7-1.4,4.3-2.2c8.2-4.1,20-9.2,34.5-13.6c13.7-4.1,29.7-7.5,47.3-8.5
		l-0.2,9.7l0,1.8c0,0.4,0.5,0.7,1.1,0.7l30,0.7c0.6,0,1.2-0.3,1.2-0.6l0-1.8l0.2-9.5c10.1,1.2,20.4,3.3,30.9,6.5
		c0,0,1.4,0.4,3.9,1.3c2.5,0.8,6.1,2.2,10.3,3.8c8.5,3.4,19.6,8.6,30.2,15.3c4,2.5,7.9,5.3,11.5,8.3c-14.8-0.6-24.5,4.7-29.6,12.7
		c-4.5,7.1-5.5,15.7-4.9,23.8c0.1,1.2,0.2,2.4,0.4,3.6l-9.7,4.2l-1.7,0.7c-0.3,0.1-0.4,0.7-0.1,1.3l11.9,27.5c0.3,0.6,0.7,0.9,1,0.8
		l1.7-0.7l9.1-4c2.5,3.1,5,5.4,7.7,7.1c7.5,4.9,15.6,4.1,21.8,1.1c3.7-1.8,6.8-4.2,9.4-6.8l7.6,4.3l1.6,0.9c0.3,0.2,0.8-0.1,1.1-0.7
		l14.8-26.1c0.3-0.6,0.3-1.1,0-1.3l-1.6-0.9L450,200c-0.3-0.2-0.8,0.1-1.1,0.7l-0.9,1.6c0.9-9.8-1.2-18.7-5.5-26.7
		c-1.6-3-3.5-5.8-5.6-8.5c11.8,3.1,26.6,8.9,44.6,18.2c0.3,0.2,1.2,0.8,2.6,1.8c1.7,1.2,4.2,3.1,7.3,5.6c0.8,0.6,2.8,2.7,3.6,3.5
		c1.4-1.5,2-4.2,3.7-5.4C490.6,183.8,484.8,180.1,484.8,180z M167.8,161.8c-11.3,4.3-21.1,7-29.5,8.2c-16.1,2.4-27.2,0-34.8-4.8
		c-9.2-5.8-13.6-15.5-15.1-25.9c-1.4-10.3,0.3-21.2,3.2-28.3c3.6-9,7.4-16.3,11.3-22.4c11.2-17.5,22.6-23.5,32.6-24.6
		c10.1-1.1,19.4,2.9,26.1,7.2c4.4,2.8,7.6,5.7,8.8,6.9c0.2,0.2,0.4,0.4,0.5,0.5c10.4,13.6,13.4,28.1,11.5,43.3
		C180.9,134.9,175.5,148.4,167.8,161.8z M437,178.6c6.1,11.5,7.4,24.5-0.4,40.2c-0.2,0.5-0.5,1-0.9,1.6c0,0,0,0-0.1,0.1
		c-2.2,3.5-6.5,7.8-11.4,10.1c-5,2.3-10.2,2.8-15.8-0.7c-4.1-2.6-8.6-7.8-12.8-16.8c-2.2-4.7-4.2-11.8-4.8-19.1
		c-0.6-7.3,0.5-14.6,3.9-20c4-6.1,11-10.4,24.7-9.8c2.3,0.1,4.7,0.3,7.3,0.8C430.9,169.2,434.5,173.7,437,178.6z"/>
	<path class="st0" d="M196.6,191c-3.4-6.3-4.2-13.1-2.9-18.9l23.8-12.8c5.6,2.1,10.8,6.6,14.2,12.8c6.4,11.9,16.5,49.6,6.8,54.8
		C228.8,232.1,203.1,202.9,196.6,191z"/>
	<path class="st1" d="M225.8,177.2c7.2,7.1,8.9,19.5,8.9,29.2c0,1.1-1.3,1.5-1.7,0.3c-3.4-9.5-2.8-19.4-8.5-28.2
		C223.8,177.5,225,176.4,225.8,177.2z"/>
	<path class="st2" d="M295.2,153.2c0.2-7.1,2.8-13.5,6.9-17.9l27,0.7c3.8,4.6,6.2,11,6,18.2c-0.3,13.5-10.2,51.2-21.2,51
		C302.8,204.8,294.8,166.7,295.2,153.2z"/>
	<path class="st1" d="M327.3,155.6c2.7,9.7-1.8,21.3-6.7,29.8c-0.6,1-1.8,0.7-1.6-0.6c1.7-9.9,7.1-18.2,6.5-28.7
		C325.5,154.9,327,154.5,327.3,155.6z"/>
	<path class="st3" d="M135.8,256c-4.9-5.2-7.5-11.5-7.7-17.5l19.6-18.5c5.9,0.5,12.1,3.5,17,8.7c9.3,9.9,28.8,43.6,20.9,51.1
		C177.7,287.3,145.2,265.8,135.8,256z"/>
	<path class="st1" d="M160.4,235.1c8.8,5,13.7,16.4,16.2,25.9c0.3,1.1-0.8,1.7-1.6,0.7c-5.8-8.3-7.8-17.9-15.5-25
		C158.6,235.8,159.4,234.5,160.4,235.1z"/>
	<path class="st3" d="M416,111.9c-2.7,6.6-7.5,11.6-12.8,14.2l-25-10.3c-1.9-5.6-1.8-12.5,0.9-19.1c5.2-12.5,27.9-44.2,38-40
		C427.3,60.9,421.1,99.3,416,111.9z"/>
	<path class="st1" d="M386.8,98.1c1-10.1,9.4-19.2,16.9-25.4c0.9-0.7,1.9,0,1.3,1.1c-5.1,8.7-13.2,14.5-16.4,24.4
		C388.3,99.4,386.7,99.2,386.8,98.1z"/>
	<path class="st4" d="M99.1,38.6c5,5,7.8,11.3,8.2,17.3L88.3,75c-6-0.4-12.2-3.1-17.3-8.2c-9.6-9.6-30.1-42.7-22.4-50.5
		C56.4,8.6,89.5,29.1,99.1,38.6z"/>
	<path class="st1" d="M75.2,60.3c-8.9-4.7-14.2-16-17-25.4c-0.3-1.1,0.8-1.8,1.5-0.7c6,8.1,8.3,17.7,16.3,24.5
		C77,59.4,76.3,60.8,75.2,60.3z"/>
	<path class="st2" d="M51.4,149.5c6.4-3.1,13.3-3.6,19-2l11.7,24.3c-2.3,5.5-7,10.5-13.4,13.6c-12.2,5.9-50.2,14.4-55,4.4
		C9,179.9,39.2,155.4,51.4,149.5z"/>
	<path class="st1" d="M63.9,179.2c-7.4,6.9-19.8,8.1-29.6,7.6c-1.1-0.1-1.4-1.3-0.2-1.7c9.6-3,19.5-2,28.5-7.3
		C63.8,177.2,64.8,178.4,63.9,179.2z"/>
	<path class="st5" d="M259.1,89.1c2.2,6.8,1.8,13.6-0.6,19.1l-25.7,8.3c-5.1-3.1-9.5-8.4-11.6-15.2c-4.1-12.9-7.3-51.7,3.2-55.1
		C234.8,42.8,254.9,76.2,259.1,89.1z"/>
	<path class="st1" d="M227.9,97.4c-5.8-8.3-5.3-20.7-3.5-30.3c0.2-1.1,1.5-1.2,1.7,0c1.7,9.9-0.7,19.6,3.3,29.2
		C229.9,97.5,228.6,98.4,227.9,97.4z"/>
	<path class="st4" d="M353.9,207.2c6.5-2.8,13.4-3.1,19.1-1.3l10.7,24.8c-2.5,5.4-7.4,10.2-14,13.1c-12.4,5.4-50.8,12.2-55.2,2.1
		C310.1,235.8,341.4,212.6,353.9,207.2z"/>
	<path class="st1" d="M365.1,237.4c-7.7,6.6-20.1,7.3-29.9,6.4c-1.1-0.1-1.4-1.4-0.1-1.7c9.7-2.6,19.5-1.2,28.8-6.1
		C365,235.4,366,236.6,365.1,237.4z"/>
	<path class="st0" d="M460.8,248.1c-6.2-3.5-10.5-8.9-12.5-14.5l13.4-23.4c5.8-1.2,12.6-0.2,18.8,3.3c11.8,6.7,40.3,33.2,34.8,42.8
		C509.9,265.9,472.6,254.8,460.8,248.1z"/>
	<path class="st1" d="M478.2,221c9.9,2.2,17.9,11.7,23.1,20c0.6,0.9-0.3,1.9-1.3,1.1c-8-6.2-12.7-14.9-22.1-19.4
		C476.7,222.2,477.1,220.7,478.2,221z"/>
</g>
</svg>
