<?xml version="1.0" encoding="UTF-8" standalone="no"?>
<!DOCTYPE svg PUBLIC "-//W3C//DTD SVG 1.1//EN" "http://www.w3.org/Graphics/SVG/1.1/DTD/svg11.dtd">
<svg width="100%" height="100%" viewBox="0 0 1080 1296" version="1.1" xmlns="http://www.w3.org/2000/svg" xmlns:xlink="http://www.w3.org/1999/xlink" xml:space="preserve" xmlns:serif="http://www.serif.com/" style="fill-rule:evenodd;clip-rule:evenodd;stroke-linejoin:round;stroke-miterlimit:2;">
    <path d="M434.6,794.1C434.1,793.9 433.6,793.7 433.1,793.7C432.6,793.7 432.4,793.7 432.2,793.9C430.8,796.2 428.3,798.3 424.9,800.2C421.5,802.1 417.5,804 412.9,806C413.7,801.5 414.3,797.1 414.8,792.7C415.1,790.6 415.2,788 415.3,784.9C415.4,781.8 415.2,778.5 414.8,775.2C414.4,771.9 413.5,769 412.2,766.5C410.9,764 409,762.4 406.5,761.7C404.7,761.2 402.8,761.3 400.9,762C399,762.7 397.1,763.8 395.4,765.2C393,767.2 390.6,769.7 388.1,772.5C385.7,775.4 383.3,778.4 380.9,781.5C379.1,783.9 377.3,786.3 375.7,788.7C374.2,791 372.8,792.9 371.6,794.5C370.3,796.1 369.2,797.1 368.3,797.5C367.7,797.6 367.5,796 367.8,792.7C368.1,789.4 368.7,785.4 369.5,780.7C370.3,775.9 371.2,771.3 372.2,766.9C373.2,762.5 374,759.1 374.7,756.8C374.8,756.5 374.6,756 374.2,755.4C373.9,754.8 373.3,754.3 372.6,753.9C371.9,753.5 371.1,753.3 370.1,753.4C368.1,753.7 366.3,755.4 364.8,758.5C363.4,761.4 362.2,764.8 361.2,768.8C360.9,768.7 360.5,768.8 360.1,769C357.4,770.4 355,771.1 352.9,771.1C350.8,771.1 349.2,769.7 348.1,767C347.6,765.7 347.2,764.2 346.9,762.5C346.6,761.2 346.3,759.9 345.9,758.7C345.5,757.5 345.1,756.5 344.5,755.7C343.5,754.5 342.3,753.8 340.9,753.8C339.5,753.8 338.1,754.2 336.8,755.1C333.2,757.6 329.6,761.5 325.9,767C322.3,772.5 318.9,778.3 315.8,784.4C312.7,790.5 310.3,795.7 308.5,799.9C308.9,795.7 309.4,791.5 309.9,787.4C310.5,783.3 311.3,779.2 312.4,775C312.5,774.6 312.2,774.2 311.7,773.7C311.5,773.5 311.2,773.3 310.9,773.1C311.3,772.8 311.7,772.5 312.1,772.1C312.4,771.8 312.5,771.3 312.4,770.9C312.3,770.4 312,770 311.6,769.7C311.2,769.4 310.6,769.4 310,769.7C307.3,771.1 304.9,771.8 302.8,771.8C300.7,771.8 299.1,770.4 298,767.7C297.6,766.5 297.2,765 296.8,763.3C296.5,761.9 296.2,760.6 295.8,759.4C295.4,758.2 295,757.2 294.4,756.4C293.4,755.2 292.2,754.5 290.8,754.5C289.4,754.5 288,754.9 286.7,755.8C283.1,758.3 279.5,762.3 275.8,767.8C272.2,773.3 268.8,779.1 265.7,785.1C262.6,791.2 260.2,796.3 258.4,800.6C259,792.3 260.3,784 262.3,775.7C262.4,775.2 262.1,774.7 261.4,774.1C260.7,773.5 259.8,773.1 258.8,772.9C257.2,772.6 255.9,772.9 254.8,773.7C253.8,774.5 252.6,775.5 251.5,776.8C250.3,778.1 249.6,778.9 249.4,779.3C244.7,785.9 238.5,794 231,803.6C223,813.6 217.6,819.5 214.8,821.2C212,823 209.8,823.5 208.4,822.8C207,822.1 205.7,820.1 204.7,816.9C204,814.3 203.7,811.5 203.9,808.3C204.1,805.1 204.5,802 205.2,798.9C212.4,795.6 219.2,791.3 225.7,785.7C227.7,784 230,781.9 232.4,779.3C234.8,776.8 236.9,774 238.6,771.2C239.8,769 240.6,766.8 240.8,764.4C241,762.1 240.6,760.1 239.5,758.5C238.4,756.9 236.3,755.9 233.3,755.7C229,755.5 224.9,756.5 221,758.8C217.1,761.1 213.5,764.3 210.2,768.3C207,772.3 204.2,776.8 201.8,781.7C199.5,786.6 197.7,791.6 196.6,796.6C196.5,797.1 196.4,797.6 196.3,798.2C195.8,798.5 195.4,798.8 194.9,799.2C191.2,802.7 187.8,806.9 184.6,811.7C181.4,816.5 178.5,821.4 175.8,826.3C174.6,828.3 173.5,830.2 172.4,832.1C172,832.7 171.7,833.3 171.4,833.9C170.7,835.2 170.1,836.1 169.6,836.7C169.1,837.3 168.8,837.3 168.7,836.7C168.5,836.1 168.6,834.6 168.8,832.2C169.7,824.6 171.8,815.5 175.1,804.8C178.4,794.1 181.5,785.3 184.4,778.4C186.4,773.5 187.7,769.6 188.3,766.6C188.8,764 188.6,761.7 187.7,759.8C186.8,757.9 185.3,756.8 183.3,756.4C181.2,756.2 178.8,757.1 176.2,759C172.5,761.8 169.2,765.3 166.2,769.5C163.2,773.7 160.6,777.8 158.2,781.9C157.9,782.3 157.7,782.7 157.4,783.1C157.3,779.5 156.3,777.1 154.6,775.9C152.8,774.8 150.8,774.8 148.4,775.9C146,777 143.9,779.1 142,782.2C138.8,787.1 135.3,795.3 131.4,806.8C131.7,801.8 132.3,796.4 133.1,790.4C133.9,784.5 134.8,779.1 136,774.3C136.1,773.7 135.8,773.1 135.1,772.6C134.4,772.1 133.5,771.8 132.6,771.6C131.7,771.4 130.9,771.4 130.4,771.6C129.7,772 129.1,772.7 128.6,773.7C128.1,774.8 127.7,775.9 127.3,777.1C126.9,778.3 126.7,779.3 126.6,780.1C123.9,794.2 122.6,806.5 122.7,817C122.7,817.7 122.8,819 122.9,820.7C123,822.4 123.2,824.1 123.4,825.7C123.6,827.3 123.9,828.4 124.3,828.9C124.5,829.1 125,829.4 125.9,829.6C126.7,829.8 127.5,830 128.4,829.9C129.6,829.9 130.3,829.7 130.7,829.4C131,829.1 131.2,828.5 131.3,827.7C132.4,823.2 133.9,817.6 136,810.9C138.1,804.2 140.3,797.8 142.8,791.8C143.5,790.1 144.5,787.9 145.9,785.2C147.3,782.6 148.7,780.6 150.2,779.3C150.5,779.1 150.8,779 151.1,779C151.4,779 151.5,779.3 151.5,779.8C151.5,780.3 151.4,781.2 151.2,782.3C150.6,784.8 149.7,787.5 148.8,790.3C147.8,793.1 146.9,795.6 146,797.7C145.6,798.9 145.2,799.9 144.9,800.8C144.7,801.4 145.1,802.1 146,802.9C146.9,803.7 147.9,804.2 149.1,804.4C150.3,804.6 151.3,804.1 152.1,802.9C153.1,801.1 154.2,799.2 155.3,797.3C158.6,791.4 162.2,785.3 166.1,779C170,772.7 174,767.3 178.1,762.9C179.8,761.2 180.6,760.9 180.7,762C180.7,763.1 180.3,764.9 179.3,767.4C178.4,770 177.3,772.6 176.2,775.4C175.3,777.4 174,780.8 172.2,785.6C170.4,790.4 168.5,795.8 166.6,801.9C164.7,807.9 163.2,813.9 162,819.8C160.8,825.7 160.5,830.8 160.8,835.1C161.2,839.4 162.8,842.2 165.5,843.5C167,844.1 168.6,843.9 170.4,843C172.2,842.1 174.1,840.2 176.1,837.4C178,834.5 180.2,831 182.6,826.9C185.5,821.9 188.5,817.1 191.6,812.4C193,810.2 194.4,808.4 195.7,806.7C195.7,811.5 196.4,815.5 197.8,818.9C199.5,822.9 201.7,825.6 204.4,827C207.1,828.4 210,828.9 213.2,828.4C213.6,828.3 214,828.2 214.4,828.1C217.1,827.5 219.8,825.8 222.7,823C225.6,820.1 229.5,815.5 234.5,809C239.5,802.6 245.5,794.2 252.7,783.9C250.1,797.5 249.2,810 249.9,821.3C250,821.7 250,822.3 250.1,823C250.2,823.7 250.3,824.5 250.4,825.2C250.6,825.9 250.7,826.4 251,826.6C251.3,826.8 251.9,827.1 252.8,827.3C253.7,827.5 254.6,827.7 255.4,827.7C256.1,827.7 256.7,827.6 257,827.5C257.3,827.4 257.6,827.2 257.7,827C257.8,826.7 257.9,826.4 257.9,825.9C258,825.8 258,825.7 258,825.6C258.7,822.1 260.4,817 262.9,810.6C265.4,804.1 268.4,797.3 271.7,790.2C275.1,783 278.4,776.7 281.7,771.1C285,765.5 287.8,761.9 290.2,760.2C290.7,761.6 291.2,763.1 291.5,764.6C291.8,766.2 292.2,767.9 292.8,769.5C293.8,771.8 295.2,773.5 296.9,774.5C298.7,775.5 300.5,776 302.4,776C303.1,776 303.8,775.9 304.5,775.8C304.2,776.6 303.9,777.4 303.7,778.2C303.3,779.8 303,781 302.9,781.9C300.1,795.9 299.1,808.7 299.8,820.3C299.8,820.6 299.9,821.2 300,822C300.1,822.8 300.2,823.5 300.4,824.2C300.6,824.9 300.7,825.4 301,825.7C301.3,825.9 301.9,826.2 302.8,826.4C303.7,826.6 304.6,826.8 305.4,826.7C306.1,826.7 306.7,826.6 307,826.5C307.3,826.4 307.5,826.3 307.7,826C307.8,825.8 307.9,825.4 308,825C308,824.9 308,824.8 308.1,824.7C308.8,821.2 310.5,816.1 313,809.7C315.5,803.2 318.5,796.4 321.8,789.3C325.2,782.1 328.5,775.8 331.8,770.2C335.1,764.6 337.9,761 340.3,759.2C340.8,760.6 341.3,762.1 341.6,763.7C341.9,765.4 342.3,767 342.9,768.6C343.9,770.9 345.3,772.5 347,773.5C348.8,774.5 350.6,775 352.5,775C355.4,775 358.1,774.1 360.7,772.4C360,775.9 359.5,779.3 359.3,782.8C358.9,787.3 359,791 359.4,794C359.8,796.4 360.5,798.3 361.6,799.6C362.7,800.9 363.9,801.7 365.3,802.1C367.8,802.7 369.9,802.4 371.7,801.3C373.5,800.2 375.1,798.8 376.5,797.1C378.1,795.2 379.9,792.8 381.9,789.7C383.3,787.6 384.7,785.8 385.8,784.2C388,781.3 390.3,778.5 392.5,775.9C394.7,773.2 396.8,771 398.9,769.2C402.2,766.4 404.4,765.5 405.5,766.6C406.6,767.7 407.2,770.2 407.2,773.9C407.4,784.9 406.1,796.9 403.2,809.8C396,812.7 388.6,816.3 380.9,820.4C377.3,822.4 373.7,824.6 370.1,826.9C366.5,829.2 363.2,831.8 360.1,834.5C356.2,838 352.9,842.1 350.5,846.6C348.1,851.2 346.8,855.3 346.5,859C346.1,863.6 347,867.3 349.2,870C351.4,872.8 354.4,874.6 358.2,875.3C362,876.1 366.3,875.6 370.9,874C375.6,872.4 380.2,869.5 384.9,865.2C389.7,860.7 393.9,855.2 397.6,848.8C401.3,842.4 404.5,835.5 407.1,828.1C408.9,822.8 410.4,817.5 411.7,812C417.8,809.5 422.8,807 426.9,804.5C431,802 434,799.1 435.9,795.7C436.1,795.2 436.1,794.8 435.8,794.5C435.5,794.6 435.1,794.3 434.6,794.1ZM213.2,778.1C214.4,776 216,773.5 218,770.6C220.1,767.7 222.4,765.2 225,763.1C225.9,762.4 227.1,761.7 228.6,760.9C230.1,760.1 231.5,759.7 232.9,759.6C234.3,759.5 235.3,760.1 235.9,761.4C236.5,763 236.3,764.8 235.2,766.9C234.1,769 232.7,771 230.9,773.1C229.1,775.2 227.3,776.9 225.6,778.5C223.9,780 222.7,781.1 222.1,781.6C217.4,785.6 212.4,789 207.2,791.9C208.7,787 210.7,782.4 213.2,778.1ZM398.5,826.1C396.8,831 394.9,835.6 392.6,840C391,843.2 388.8,846.9 385.9,851C383,855.1 379.8,858.9 376.4,862.3C371.8,866.7 367.7,869.3 364,870.2C360.3,871.1 357.4,870.7 355.3,869C353.2,867.3 352.1,864.5 352.2,860.8C352.3,857.1 353.8,852.7 356.7,847.9C358.7,844.6 361.2,841.6 364.3,838.9C367.2,836.3 370.3,833.9 373.6,831.7C377,829.5 380.4,827.5 383.8,825.6C389.6,822.4 395.5,819.5 401.3,817C400.5,820 399.6,823.1 398.5,826.1Z" style="fill:rgb(2,1,2);fill-opacity:0.4;fill-rule:nonzero;"/>
    <path d="M660.6,780.2C662.5,779.8 664,778.2 665.1,775.3C666,772.1 665.9,769.8 664.6,768.3C663.4,766.8 661.8,766.3 660,766.7C658.1,767.2 656.6,768.9 655.5,771.8C654.6,774.6 654.8,776.8 656,778.3C657.2,780 658.8,780.6 660.6,780.2Z" style="fill:rgb(2,1,2);fill-opacity:0.4;fill-rule:nonzero;"/>
    <path d="M720,747.7C714.6,748.4 709.1,750.5 703.4,754C697.7,757.5 692.5,761.9 687.9,767.1C683.3,772.3 680,777.8 678.1,783.5C677,786.8 676.6,789.9 676.7,792.6C675.1,795.5 673.2,798.7 671.1,802.1C668.5,806.2 666.1,809.6 663.8,812.4C662.2,814.2 661,815.3 660,815.6C659,815.9 658.3,815.7 657.9,814.9C656.9,813.1 656.5,810.6 656.6,807.3C656.7,804 657.1,800.7 657.8,797.1C658.5,793.6 659.1,790.5 659.7,788C659.9,787.3 660,786.6 660.1,786C660.2,785.5 660,785.1 659.4,784.7C658.9,784.4 658.2,784.1 657.4,783.8C656.6,783.6 655.9,783.4 655.2,783.3C654.9,783.2 654.5,783.2 654.2,783.2L653.9,783.2L653.8,783.3L653.6,783.3L653.6,783.4L653.5,783.4C649.1,785.4 645.9,785.6 643.8,784C641.7,782.4 640.4,779.8 639.9,776.1C639.4,772.5 639.2,768.7 639.5,764.6C639.8,760.5 640.2,757 640.7,754.1C640.9,752.2 640.5,750.9 639.5,750.1C638.5,749.3 637.3,749 635.8,749C634.3,749.1 633,749.5 631.8,750.3C628.2,752.8 624.6,756.7 621,762.2C617.3,767.7 613.9,773.5 610.9,779.6C607.8,785.7 605.4,790.8 603.7,795.1C604,790.9 604.5,786.7 605.1,782.6C605.7,778.5 606.5,774.4 607.5,770.2C607.5,769.8 607.3,769.4 606.8,768.9C606.3,768.4 605.7,768 604.9,767.7C604.1,767.4 603.3,767.3 602.5,767.5C601.7,767.7 601,768.3 600.3,769.3C599.6,770.6 599.1,772 598.7,773.6C598.3,775.2 598,776.5 597.8,777.4C596.9,782.1 596.2,786.7 595.6,791.1C593.3,792.1 590.7,794 587.9,796.8C584.4,800.3 580.7,804.8 576.8,810.1C574.5,813.3 572.3,816.3 570.1,819.1C567.9,822 565.8,824.4 563.8,826.4C561.9,828.4 560.6,829.5 559.7,829.8C558.8,830.1 558.6,828.7 559.2,825.7C559.8,822.7 560.7,819.5 561.9,816.1C563.1,812.7 564.3,809.6 565.6,806.8C565.7,806.6 565.8,806.4 565.8,806.2C566.7,804.2 567.6,802 568.6,799.3C569.6,796.7 570.2,794 570.5,791.4C570.8,788.8 570.5,786.6 569.5,784.7C568.9,783.6 567.9,782.9 566.7,782.4C565.5,781.9 564,781.9 562.4,782.2C559.9,782.8 557.1,784.3 553.9,786.7C546.9,792.2 540.2,799.4 534,808.1C534.2,803.4 534.5,798.4 535,793.1C539.7,790.6 544.3,787.5 548.8,783.8C553.3,780 557.6,775.9 561.6,771.3C565.9,766.4 570.4,760.5 575,753.5C579.6,746.5 583,739.6 585.3,732.8C586.4,729.4 587,726 587.1,722.4C587.2,718.9 586.7,715.7 585.6,712.9C584.5,710.1 582.5,708.1 579.6,707C576.7,705.9 572.8,706 567.8,707.5C564.8,708.3 561.8,709.9 558.6,712.3C555.4,714.7 552.3,717.8 549.2,721.7C543,730 538,740.1 534.1,752.1C530.2,764.1 527.7,776.4 526.4,788.9C526.3,790.3 526.2,791.6 526,792.9C524.5,793.8 522.8,794.9 521,796.4C518.4,798.6 515.6,801 512.7,803.7C508.8,807.4 505,810.6 501.1,813.6C496,817.3 492,819 489.2,818.6C486.4,818.3 484.4,816.7 483.3,813.8C482.2,810.9 481.7,807.5 481.9,803.6C482.1,799.6 482.6,795.9 483.4,792.3C484.9,785.8 487.4,779.5 490.8,773.5C492,771.4 493.6,768.9 495.6,766C497.7,763.1 500,760.6 502.6,758.5C504.6,756.9 506.7,755.9 508.7,755.5C510.7,755.1 512.3,755.3 513.4,756.2C514.5,757.1 514.6,758.7 513.8,761.1C513.4,762.1 512.9,763.1 512.2,764.1C511.5,765.1 510.9,765.9 510.3,766.6C510.2,766.7 510.2,766.8 510,766.9C509.6,767.5 509.5,768.1 509.7,768.6C510,769.1 510.4,769.5 511,769.7C511.6,769.9 512.1,770 512.5,769.8C513.7,769.3 515,768.4 516.3,766.9C517.6,765.5 518.5,763.6 519.1,761.5C519.7,758.8 519.3,756.4 517.9,754.3C516.4,752.3 514.2,751.1 511.1,750.8C506.8,750.6 502.7,751.7 498.8,754C494.9,756.3 491.3,759.5 488,763.5C484.8,767.5 482,772 479.6,776.9C477.3,781.8 475.5,786.8 474.4,791.8C474,793.3 473.7,795 473.5,796.8C472.7,805.3 473.7,811.9 476.6,816.6C479.5,821.4 483.9,823.7 489.8,823.7C493.4,823.5 496.9,822.5 500.3,820.7C503.7,818.8 507,816.6 510.2,813.9C513.4,811.2 516.3,808.5 519.1,805.7C521.3,803.6 523.3,801.7 525.3,800L525.4,799.9C525.2,807.9 525.6,815.2 526.7,821.8C526.8,822.2 527.1,822.5 527.6,822.6C528.1,822.8 528.6,822.9 529.1,822.9L530.6,822.9C532.6,822.6 533.7,822.2 533.8,821.5C534.4,819.4 535.8,816.6 538.1,813.1C540.4,809.6 543,805.9 546.1,802.1C549.1,798.3 552.1,795 555,792.2C557.9,789.4 560.2,787.5 561.9,786.7C563.7,785.9 564.4,786.7 564.1,789.2C563.7,791.2 563,793.5 561.9,796.1C560.8,798.7 559.9,800.9 559.1,802.6C558.8,803.3 558.5,803.8 558.4,804.1C557,807.4 555.6,811 554.3,814.8C553,818.6 552.3,822.3 552.1,825.9C552.1,829.7 553.3,832.4 555.7,833.8C558.1,835.3 560.9,835 564.2,832.9C567.1,830.8 570,827.9 572.9,824.3C575.8,820.7 578.8,816.8 581.7,812.7C582.8,811.1 584.4,809 586.5,806.4C588.6,803.8 590.7,801.3 592.9,799C593.6,798.3 594.2,797.7 594.8,797.1C594.3,803.5 594.2,809.5 594.6,815.3C594.6,815.6 594.7,816.2 594.8,817C594.9,817.8 595,818.5 595.2,819.3C595.4,820 595.5,820.5 595.7,820.7C596,820.9 596.6,821.2 597.5,821.4C598.4,821.6 599.3,821.8 600.2,821.7C600.9,821.7 601.5,821.7 601.8,821.6C602.1,821.5 602.3,821.4 602.4,821.1C602.5,820.8 602.6,820.5 602.7,820L602.7,819.7C603.4,816.2 605.1,811.1 607.6,804.7C610.1,798.2 613.1,791.4 616.4,784.3C619.8,777.1 623.1,770.8 626.4,765.2C629.7,759.6 632.6,756 635,754.2C635,754.7 634.8,755.4 634.7,756.3C634.4,758.5 634.1,761.3 633.8,764.8C633.5,768.3 633.6,771.8 634,775.4C634.4,779 635.5,782 637.3,784.5C639.1,787 641.9,788.3 645.7,788.5C647.2,788.5 648.7,788.4 650.4,788C649.9,789.7 649.4,791.4 649.1,793C648.8,794.6 648.6,795.8 648.5,796.5C648.1,799 648,802.2 648.1,806C648.2,809.8 649,813.2 650.5,816.1C652.5,819.3 655.1,820.8 658.3,820.6C660.6,820.6 663,819.7 665.4,818C668.7,815.4 671.7,812 674.3,807.8C676,805 677.5,802.4 678.8,799.9C679.9,802.1 681.4,804.1 683.3,806C686.3,808.9 689.8,811.6 693.9,814.1C689.4,818.4 686,822.1 683.6,825.2C682,827.1 680.4,829.4 678.8,832.2C677.2,835 676.3,837.6 676.3,840.2C676.4,842.2 677.1,843.7 678.3,844.8C679.6,845.9 681.2,846.5 683,846.8C686.8,847.3 690.7,846.4 694.7,844.3C698.7,842.2 702,839.3 704.8,835.6C707.6,831.9 709.2,828 709.5,823.9C709.8,819.8 708.3,815.9 704.9,812.2C705,812.1 705.1,812.1 705.2,812C709.5,808.5 713.7,805.1 718,801.8C722.3,798.5 726.7,795.3 731.3,792.3C732.2,791.6 732.5,790.9 732.3,790.1C732.1,789.3 731.5,788.7 730.7,788.3C729.9,787.9 729,787.9 728.1,788.4C718.2,794.4 708.9,801.1 700.1,808.4C699.8,808.2 699.4,808 699,807.7C696.1,805.8 693.4,803.8 691,801.8C688.6,799.7 686.9,797.3 686,794.5C685.1,791.7 685.3,788.2 686.7,784.1C688.6,779.2 691.7,774.3 696.3,769.6C700.8,764.9 705.6,760.9 710.7,757.6C715.8,754.4 720.2,752.5 723.9,752C727.8,751.6 730.4,752 731.7,753.1C733,754.2 733.3,755.8 732.6,757.8C731.9,759.8 730.7,762 728.9,764.3C725.8,767.9 722.2,771.3 718.1,774.4C714,777.5 710.8,779.7 708.3,781C708,781.2 707.9,781.6 707.9,782.2C707.9,782.8 708.1,783.3 708.4,783.8C708.7,784.3 709.1,784.5 709.5,784.5C711.3,784.2 714.1,783 717.9,780.8C721.7,778.7 725.4,776 729.1,772.7C733.5,768.5 736.2,764.3 737.2,760.1C738.2,755.9 737.2,752.4 734.4,749.8C731.8,748 726.9,747.1 720,747.7ZM539.7,764.9C541.4,757.7 543.7,750.7 546.4,744.2C549.1,737.6 552.5,731.8 556.4,726.6C560,721.9 563.6,718.3 567.2,715.6C570.8,713 573.9,711.6 576.4,711.6C579,711.6 580.6,713.1 581.4,716.2C582.2,719.3 581.5,724.2 579.5,731C577.4,737.3 574.1,743.9 569.6,750.9C565,757.8 560.8,763.6 556.8,768C550.2,775.6 543.2,781.7 535.7,786.4C536.6,779.3 538,772.2 539.7,764.9ZM698.7,818.5C700.2,820.1 700.8,821.8 700.7,823.5C700.7,825.8 700.1,828.1 698.7,830.3C697.3,832.6 695.6,834.7 693.6,836.6C691.5,838.5 689.5,840 687.4,841.1C683.9,843 681.9,843.7 681.3,843C680.7,842.3 681.2,840.8 682.6,838.5C684,836.2 685.8,833.6 688,830.8C690.2,828 692.4,825.4 694.4,823.1C696.5,820.8 697.9,819.3 698.7,818.5Z" style="fill:rgb(2,1,2);fill-opacity:0.4;fill-rule:nonzero;"/>
    <path d="M949.2,761.5C946.1,765.1 942.5,768.5 938.4,771.6C934.3,774.7 931.1,776.9 928.6,778.2C928.3,778.4 928.2,778.8 928.2,779.4C928.2,780 928.4,780.5 928.7,781C929,781.5 929.4,781.7 929.8,781.7C931.6,781.4 934.4,780.2 938.2,778C942,775.9 945.7,773.2 949.4,769.9C953.8,765.7 956.5,761.5 957.5,757.3C958.5,753.1 957.5,749.6 954.7,747C951.9,744.4 947,743.4 940.1,744C934.7,744.7 929.2,746.8 923.5,750.3C917.8,753.8 912.6,758.2 908,763.4C903.4,768.6 900.1,774.1 898.2,779.8C897.1,783.2 896.7,786.3 896.8,789.1C895.4,791.5 893.9,794.1 892.3,796.9C890.2,800.5 888.1,803.7 886,806.5C883.2,810.1 881.2,811.9 879.8,811.9C878.5,811.8 877.7,810.7 877.3,808.5C877,806.3 877,803.8 877.2,801C877.5,798.2 877.8,795.9 878.2,794.2C879.3,788.9 880.6,783.9 882.2,779.2C883.8,774.4 885.2,771.1 886.3,769C887.1,767.6 887.1,766.4 886.2,765.5C885.4,764.6 884.2,764 882.7,763.6C881.2,763.3 879.8,763.1 878.6,763.3C878.3,763.4 877.6,764.3 876.3,766.1C875.1,767.8 873.6,770 871.8,772.6C870,775.2 868.3,777.9 866.5,780.7C864.6,783.5 862.9,785.9 861.5,788.1C860.1,790.2 859.1,791.6 858.6,792.3C855.7,795.7 853.5,797.7 851.9,798.2C850.3,798.7 849.2,798.2 848.8,796.6C848,793.8 848,790.2 848.8,785.7C849.6,781.2 851.1,776.5 853.3,771.7C855.5,766.8 858.1,762.5 861.3,758.6C864.5,754.7 867.9,751.9 871.6,750.3C873.8,749.3 875.8,749 877.5,749.3C879.2,749.6 880.3,751.1 880.6,753.7C881,756.5 881.9,758.2 883.2,758.8C884.5,759.4 885.6,759 886.4,757.7C887.2,756.4 887.1,754.6 886.1,752.1C885.1,750.1 883.5,748.5 881.4,747.3C879.3,746.1 877,745.4 874.7,745.4C869.1,745.4 863.9,747.3 859.2,750.9C854.5,754.5 850.6,759.1 847.4,764.6C844.2,770.1 842.1,775.8 841.1,781.5C840.7,783.7 840.5,785.9 840.5,787.9C840.1,788.1 839.8,788.4 839.4,788.8C835.7,792.3 832.3,796.5 829.1,801.3C825.9,806.1 823,811 820.3,815.9C819.1,817.9 818,819.8 816.9,821.7C816.5,822.3 816.2,822.9 815.9,823.5C815.2,824.8 814.6,825.7 814.1,826.3C813.6,826.9 813.3,826.9 813.2,826.3C813,825.7 813.1,824.2 813.3,821.8C814.2,814.2 816.3,805.1 819.6,794.4C822.9,783.7 826,774.9 828.9,768C830.9,763.1 832.2,759.2 832.8,756.2C833.3,753.6 833.1,751.3 832.2,749.4C831.3,747.5 829.8,746.4 827.8,746C825.7,745.8 823.3,746.7 820.7,748.6C817,751.4 813.7,754.9 810.7,759.1C807.7,763.3 805.1,767.4 802.7,771.5C802.4,771.9 802.2,772.3 801.9,772.7C801.8,769.1 800.8,766.7 799.1,765.5C797.3,764.4 795.3,764.4 792.9,765.5C790.5,766.6 788.4,768.7 786.5,771.8C783.3,776.7 779.8,784.9 775.9,796.4C776.2,791.4 776.8,786 777.6,780C778.4,774.1 779.3,768.7 780.5,763.9C780.6,763.3 780.3,762.7 779.6,762.2C778.9,761.7 778,761.4 777.1,761.2C776.2,761 775.4,761 774.9,761.2C774.2,761.6 773.6,762.3 773.1,763.3C772.6,764.4 772.2,765.5 771.8,766.7C771.4,767.9 771.2,768.9 771.1,769.7C769.6,777.3 768.6,784.4 768,790.9C767.9,791.1 767.7,791.4 767.6,791.7C767,792.9 766.3,794.2 765.6,795.8C764.2,798.8 762.6,802 760.8,805.5C759.1,808.9 757.3,812 755.6,814.6C753.9,817.2 752.3,818.8 751,819.3C749.7,819.8 748.7,818.7 748.1,815.8C747.5,812.9 747.5,807.7 748,800.1C748.9,790.7 750.6,780.1 753.3,768.1C756,756.1 758.5,746.1 760.9,737.8C761.8,737.7 762.6,737.5 763.5,737.3C764.9,737.1 766.3,736.9 767.7,736.6C772.7,735.7 777.8,734.9 783,734.3C788.2,733.6 793.4,733.3 798.6,733.4C803.8,733.5 809.1,734.2 814.3,735.5C815.5,735.8 816.3,735.6 816.8,734.9C817.2,734.3 817.3,733.6 817,732.8C816.6,732.2 815.6,731.7 814.2,731.2C812.7,730.7 811.1,730.3 809.5,730C807.8,729.7 806.7,729.5 806,729.4C799,728.7 791.7,728.7 784.2,729.2C776.7,729.8 769.5,730.6 762.8,731.8C763.2,730.7 763.5,729.7 763.8,728.9C764.4,727.1 764.2,725.5 763.1,724.3C762.1,723.1 760.7,722.5 759.1,722.7C757.4,722.8 756,724.1 754.9,726.4C753.9,728.5 752.9,730.9 751.9,733.6C746.5,734.4 741.5,734.8 736.9,734.8C732.3,734.8 728.3,734.1 724.8,732.8C723.9,732.5 723.2,732.6 722.7,733C722.2,733.5 721.9,734.1 721.8,734.8C721.7,735.5 721.9,736 722.3,736.2C726.1,737.9 730.4,738.9 735,739.3C739.6,739.7 744.6,739.6 750,739.1C745.2,753.7 741.7,770 739.3,788C739.3,788.5 739.2,788.9 739.2,789.5C738.7,792.9 738.4,796.6 738.1,800.6C738,803.1 738.1,806.3 738.6,810C739,813.8 740.1,817.1 741.9,820.1C743.8,822.9 746,824.4 748.6,824.7C751.1,825 753.6,824.3 755.9,822.8C758.6,821.1 760.9,818.5 763,815.1C764.6,812.2 766.1,809.3 767.6,806.3L767.6,806.4C767.6,807.1 767.7,808.4 767.8,810.1C767.9,811.8 768.1,813.5 768.3,815.1C768.5,816.7 768.8,817.8 769.2,818.3C769.4,818.5 769.9,818.8 770.8,819C771.6,819.2 772.4,819.4 773.3,819.3C774.5,819.3 775.2,819.1 775.6,818.8C775.9,818.5 776.1,817.9 776.2,817.1C777.3,812.6 778.8,807 780.9,800.3C783,793.6 785.2,787.2 787.7,781.2C788.4,779.5 789.4,777.3 790.8,774.6C792.2,772 793.6,770 795.1,768.7C795.4,768.5 795.7,768.4 796,768.4C796.3,768.4 796.4,768.7 796.4,769.2C796.4,769.7 796.3,770.6 796.1,771.7C795.5,774.2 794.6,776.9 793.7,779.7C792.7,782.5 791.8,785 790.9,787.1C790.5,788.3 790.1,789.3 789.8,790.2C789.6,790.8 790,791.5 790.9,792.3C791.8,793.1 792.8,793.6 794,793.8C795.2,794 796.2,793.5 797,792.3C798,790.5 799.1,788.6 800.2,786.7C803.5,780.8 807.1,774.7 811,768.4C814.9,762.1 818.9,756.7 823,752.3C824.7,750.6 825.5,750.3 825.6,751.4C825.6,752.5 825.2,754.3 824.2,756.8C823.3,759.4 822.2,762 821.1,764.8C820.2,766.8 818.9,770.2 817.1,775C815.3,779.8 813.4,785.2 811.5,791.3C809.6,797.3 808.1,803.3 806.9,809.2C805.7,815.1 805.4,820.2 805.7,824.5C806.1,828.8 807.7,831.6 810.4,832.9C811.9,833.5 813.5,833.3 815.3,832.4C817.1,831.5 819,829.6 821,826.8C822.9,823.9 825.1,820.4 827.5,816.3C830.4,811.3 833.4,806.5 836.5,801.8C838.4,798.9 840.2,796.5 842,794.5C842.2,795.2 842.4,795.8 842.6,796.5C843.8,799.5 845.7,801.4 848.1,802.2C850.5,803 853.2,802.8 856,801.5C858.9,800.3 861.7,798 864.4,794.8C866.9,791.7 869.1,788.5 871,785.2C870.5,786.9 870.1,788.5 869.8,790C869.5,791.5 869.3,792.7 869.2,793.4C868.8,795.9 868.7,799.1 868.8,802.9C868.9,806.7 869.7,810.1 871.2,813C873.1,816.2 875.7,817.7 878.9,817.6C881.2,817.6 883.6,816.7 886,815C889.3,812.4 892.3,809 894.8,804.8C896.5,802.1 897.9,799.5 899.2,797.1C900.3,799.3 901.8,801.3 903.7,803.1C906.7,806 910.2,808.7 914.3,811.2C909.8,815.5 906.4,819.2 904,822.3C902.4,824.2 900.8,826.5 899.2,829.3C897.6,832.1 896.7,834.7 896.7,837.3C896.8,839.3 897.5,840.8 898.7,841.9C900,843 901.6,843.6 903.4,843.9C907.2,844.4 911.1,843.5 915.1,841.4C919.1,839.3 922.4,836.4 925.2,832.7C928,829 929.6,825.1 929.9,821C930.2,816.9 928.7,813 925.3,809.3C925.4,809.2 925.5,809.2 925.6,809.1C929.9,805.6 934.1,802.2 938.4,798.9C942.7,795.6 947.1,792.4 951.7,789.4C952.6,788.7 952.9,788 952.7,787.2C952.5,786.4 951.9,785.8 951.1,785.4C950.3,785 949.4,785 948.5,785.5C938.6,791.5 929.3,798.2 920.5,805.5C920.2,805.3 919.8,805.1 919.4,804.8C916.5,802.9 913.8,800.9 911.4,798.9C909,796.8 907.3,794.4 906.4,791.6C905.5,788.8 905.7,785.3 907.1,781.2C909,776.3 912.1,771.4 916.7,766.7C921.2,762 926,758 931.1,754.7C936.2,751.5 940.6,749.6 944.3,749.1C948.2,748.7 950.8,749.1 952.1,750.2C953.4,751.3 953.7,752.9 953,754.9C952.3,757.1 951,759.2 949.2,761.5ZM918.9,815C920.4,816.6 921,818.3 920.9,820C920.9,822.3 920.3,824.6 918.9,826.8C917.5,829.1 915.8,831.2 913.8,833.1C911.7,835 909.7,836.5 907.6,837.6C904.1,839.5 902.1,840.2 901.5,839.5C900.9,838.8 901.4,837.3 902.8,835C904.2,832.7 906,830.1 908.2,827.3C910.4,824.5 912.6,821.9 914.6,819.6C916.7,817.3 918.1,815.7 918.9,815Z" style="fill:rgb(2,1,2);fill-opacity:0.4;fill-rule:nonzero;"/>
    <path d="M446.9,625.9C441.2,626.6 436.9,627.5 432.7,627.6C429.9,627.6 427.2,626.4 424.4,625.8C425.3,623.3 425.8,620.5 427.2,618.3C441.7,595.9 458.1,575 478.1,555.3L451.5,555.3C453.9,547.9 455.2,541.4 458.2,535.7C470.1,513.2 482.4,490.9 494.7,468.7C495.6,467.1 497.8,466.1 499.4,464.9C500.8,466.8 502.7,468.5 503.4,470.6C511.3,494.2 515,518.8 519,543.2C519.6,546.8 520.1,550.4 521,553.9C522,557.9 520.5,559.6 516.6,559.6L508.3,559.6C508.9,561 509.2,562.2 509.8,563.2C517.9,575.4 525.9,587.8 534.3,599.8C538.5,605.8 537.9,608.5 530.7,610.1C524.8,611.5 518.8,612.6 512.1,613.9C515.1,618.9 517.8,623.6 520.8,628C533.3,646.5 546,664.8 558.6,683.2C559.4,684.4 560.3,685.7 561,687C562.6,690.1 561.2,692.1 558.1,692.1C554.7,692.1 551.2,691.5 547.8,690.8C529.5,687.3 511.2,683.8 492.9,680.3C492.3,680.2 491.7,680.2 490.5,680.1C491.6,686.2 492.8,692 493.8,697.8C494.9,704 495.6,710.2 496.8,716.4C497.9,722 493.6,722.3 490.3,723.1C486.5,724 483,723.6 482.1,718.6C480,707.1 477.8,695.5 475.6,684C475.3,682.4 475.1,680.8 474.9,679C463.6,678.6 452.7,678.2 441.9,677.7C437,677.5 432,676.9 427.1,676.4C423.4,676.1 422.1,673.8 423.3,670.6C424.8,666.4 426.6,662.3 428.7,658.5C434.4,647.8 440.4,637.4 446.9,625.9ZM429.8,672L489.2,672C476.5,657.3 464,642.9 451.6,628.5C444.3,643 437.4,656.8 429.8,672ZM487.1,612C502.3,609.3 516.3,606.8 530.9,604.1C520.9,589.4 511.2,575.1 501.5,560.8C501,560.9 500.5,561.1 500,561.2C495.8,577.8 491.6,594.5 487.1,612ZM481.3,560.1C473,564 438.5,607.2 437,615.2C451.8,606.4 466.4,597.8 480.9,589C482.5,588 484.8,585.9 484.6,584.5C483.9,576.6 482.5,568.6 481.3,560.1ZM543.8,673.8C544,673.5 544.2,673.2 544.4,672.9C532.2,654.8 519.9,636.7 507.5,618.2C505.5,628.1 503.4,637.9 501.6,647.7C501.4,648.7 502.8,650.5 503.9,651.2C511.1,655.3 518.4,659 525.6,663C531.7,666.5 537.7,670.2 543.8,673.8ZM495.2,480.2C494.6,480 494,479.8 493.4,479.6C481.1,502.7 468.8,525.7 456,549.6C461.6,549.6 465.7,549.4 469.7,549.7C473.3,550 474.9,548.7 475.9,545.2C478.3,536.3 481.2,527.5 483.8,518.6C487.7,505.8 491.4,493 495.2,480.2ZM488.8,516.9C485.4,528 482.2,538.6 479,549C490.6,550.4 501.8,551.8 514.1,553.3C505.3,540.7 497.2,529.1 488.8,516.9ZM546.9,682.9C547,682.5 547.1,682.2 547.2,681.8C531.8,672.5 516.4,663.1 500.2,653.2C499,660.9 498,667.2 497,673.5C514,676.8 530.4,679.8 546.9,682.9ZM492.3,667C496,650.9 499.4,635.9 502.8,620.8C502.5,620.6 502.2,620.5 502,620.3C492.8,628.9 483.5,637.5 474.1,646.2C480.1,653.1 485.9,659.7 492.3,667ZM487.1,591.2C469.8,601.2 453.7,610.5 437.6,619.8C437.8,620.2 438,620.6 438.2,621C439.2,621 440.2,621.2 441.1,621C454.4,618.5 467.7,616 480.9,613.4C481.9,613.2 483.2,612 483.4,611C484.7,604.9 485.7,598.8 487.1,591.2ZM511.8,541.8C512,541.7 512.2,541.5 512.4,541.4C508.8,520.7 505.2,500 501.6,479.4C501,479.4 500.5,479.4 499.9,479.5C497.2,489.1 494.4,498.7 491.7,508.4C491.5,509.1 491.7,510.1 492.1,510.8C498.7,521 505.3,531.4 511.8,541.8ZM470.5,642.5C480,633.8 489.1,625.5 498.8,616.6C483.5,619.4 469.2,622 454,624.8C460.5,631.7 466.2,637.8 470.5,642.5ZM479.8,679.8C482.9,692.4 485.9,704.7 488.9,717.1C489.5,717.2 490,717.2 490.6,717.3C490.9,715.3 491.8,713.2 491.5,711.3C490.1,702.4 488,693.5 486.9,684.6C486.3,679.8 484.6,678.3 479.8,679.8ZM489.4,579C489.8,579.1 490.2,579.2 490.6,579.3C492.3,572 494.1,564.7 496,556.9C492.2,556.5 488.8,556.2 484.5,555.7C486.2,564 487.8,571.5 489.4,579Z" style="fill:rgb(2,1,2);fill-opacity:0.4;fill-rule:nonzero;"/>
    <path d="M497.8,440.7C501.8,449.1 501.8,449.1 511.1,450.5C504.4,453.5 502.6,457.9 507.1,464.3C498.4,460.3 498.4,460.3 491.1,464.7C493.9,458.4 493.8,453.5 486.4,450.8C493.8,451.8 497.5,448.8 497.8,440.7Z" style="fill:rgb(2,1,2);fill-opacity:0.4;fill-rule:nonzero;"/>
    <path d="M697.9,687.7C672.1,684.3 646.7,680.9 620.5,677.4C622.9,670.6 624.8,664.5 627.2,658.8C627.8,657.3 629.9,656.7 631.3,656.6C649.5,655.1 667.8,653.7 686,652.3C687.9,652.2 689.7,651.8 691.5,650.5C671.8,646.3 652.1,642.2 631.5,637.8C633.9,631 635.9,624.6 638.4,618.7C639,617.2 641.2,616.8 642.7,616.6C657.1,614.6 671.5,612.8 685.9,610.9C687.6,610.7 689.3,610.2 691.1,609.1C675.6,605.9 660.2,602.6 644,599.2C645.9,592.6 647.2,586.2 649.5,580.6C650.3,578.6 653.3,578.2 655.4,577.9C668.3,575.9 681.3,574.1 694.3,571.3C681.1,568.5 667.9,565.7 654,562.8C655.5,557.3 656.7,552.3 658.4,547.7C658.9,546.3 660.8,545.6 662.1,545.4C674.1,543.1 686.1,540.9 698.1,537.6C686.7,535.3 675.3,533 664,530.7C665.1,519.9 667,516.9 674,515.3C680.7,513.8 687.5,512.3 694.2,509.7C686.7,508.3 679.1,506.9 671.6,505.4C672.5,496.9 675.1,492 681.1,491.1C685.8,490.4 690.4,488.3 695,485.7C689.9,484.4 684.7,483.2 678.2,481.6C680.5,476.9 682,472 684.5,469.7C687.2,467.2 691,467.2 694.3,464.7C690.8,463.8 687.4,463 684,462.1C684.3,451.7 690.1,450.4 696,447.2C692.7,446.1 690.6,445.4 688.5,444.7C689.7,433.1 694.6,425.8 700.9,419.2C702.8,423 704.7,426.9 706.8,431C705.4,432.3 704.3,433.5 702.5,435.3C708.8,437.1 713.5,440.7 714.7,450.7C711.5,452 708.2,453.3 704.8,454.7L704.8,455.7C706.8,456.2 708.9,457.3 710.9,457.1C716.9,456.6 719.1,461.7 720,469.9C715.8,471.2 711.5,472.5 707.2,473.8C707.2,474.2 707.3,474.6 707.3,475.1C710.4,475.7 713.5,476.7 716.6,476.9C720.8,477.2 723.7,479.6 724.8,486C725.1,488 725.9,489.9 726.6,492.6C719.1,494.4 712,496.1 704.8,497.8L704.8,498.7C710.8,499.8 716.8,501.7 722.8,501.7C730,501.6 732.7,507.8 734.4,516.9C724.3,519.1 714.2,521.2 704.1,523.3L704.1,524.4C712.9,526.3 721.7,528.5 730.5,529.9C735.5,530.7 739.1,533 740.5,540.5C740.8,542.3 741.6,543.9 742.5,546.6C729.5,549 716.9,551.4 704.3,553.8L704.3,555.2C710.9,556.6 717.6,558.1 724.2,559.5C731.1,560.9 738.1,562 745,563.9C746.8,564.4 748.8,566.7 749.8,569.1C751.8,573.5 753.1,578.5 754.9,583.8C739.9,585.9 725.4,588 710.9,590L710.9,591.4C721.6,593.7 732.3,596.1 743.1,598.2C758.8,601.3 758.8,601.2 765.2,622C765.4,622.6 765.4,623.2 765.7,624.7C745.6,626.7 725.7,628.7 705.8,630.7L705.8,631.7C717.9,634.4 730.1,637.1 742.2,639.7C750.6,641.5 759,643.2 767.3,645.1C768.5,645.4 770,646.2 770.6,647.5C773.5,654.1 776.2,660.9 779.4,668.8C761,669.8 743.4,670.8 725,671.8C725,676.5 724.8,680.9 725,685.3C725.2,689.5 724.3,692.2 721.6,693.9C719.3,695.4 717.4,697.9 715.1,699.2C709.8,702.1 708.2,707.4 709.5,715.2C709.9,717.6 709.9,720.2 710.1,723.4C703.4,722.7 697.2,722.3 691,721.3C690,721.2 689.2,718.8 688.4,717.3C688.2,716.9 688.4,716 688.3,715.4C686,703.3 687.1,693.6 696.6,689.7C697.1,689.6 697.3,688.8 697.9,687.7Z" style="fill:rgb(2,1,2);fill-opacity:0.4;fill-rule:nonzero;"/>
    <path d="M334.9,453.4C335.8,455.2 336.4,457.1 337.6,458.7C346.6,470.5 355.8,482.2 364.7,494.1C366.6,496.7 368.2,499.9 368.7,503.1C369.3,506.9 366.4,508.3 363.3,505.9C361.1,504.2 359.4,501.8 357.7,499.5C350.2,489.4 342.8,479.2 334.8,468.2C333.5,474 334.1,478 336.8,482.2C347.8,499 358.7,515.9 369.3,532.9C371.1,535.8 371.5,539.5 372.6,542.9C371.8,543.4 371.1,543.9 370.3,544.5C368.1,542.6 365.2,541.2 363.7,538.8C356.5,528 349.7,516.9 342.7,505.9C340.5,502.4 338.4,498.9 335.8,495.6C335.8,508.3 334.3,520.5 341.4,532.7C350.4,548.1 356.9,564.9 364.3,581.2C365.5,583.9 365.7,587.1 365.9,590.1C366,591.3 364.9,593.3 363.9,593.6C362.8,593.9 360.8,593.1 360,592.1C358.4,590 357.1,587.6 356.1,585.1C349.7,570.1 343.5,555 336.6,540C337.2,551.6 333,563.2 339,574.8C347.3,590.8 354.2,607.5 361.6,624C363,627.1 363.4,630.6 364.3,634C358.9,635.5 357.1,632.5 355.7,629.4C349.5,615.7 343.5,602 337.4,588.2C337.1,587.5 336.7,586.9 336.4,586.2C335.9,586.3 335.5,586.3 335,586.4C335,595.6 334.9,604.8 335.1,613.9C335.1,615.5 335.9,617.1 336.6,618.6C343,632.4 349.6,646 355.8,659.9C357.3,663.2 357.6,667.1 358.4,670.7C357.6,671.1 356.8,671.5 356,672C354.2,669.9 352,668 350.8,665.6C345.6,655.4 340.6,645.1 335.1,633.9C334.9,636.1 334.6,637.6 334.6,639.1C334.5,662.6 334.5,686.1 334.3,709.5C334.3,714 333.4,718.5 332.9,723C332,723.1 331.1,723.2 330.3,723.3C329.5,721 328,718.8 327.9,716.5C327.2,702 326.6,687.5 326.3,673C326,660.4 326.2,647.7 325.6,634.9C318.1,648.4 311.7,662.4 302.9,675C302.1,674.7 301.3,674.5 300.6,674.2C300.8,671.8 300.4,669.1 301.3,666.9C304.2,659.7 307.6,652.7 310.8,645.7C315.4,635.6 320.5,625.6 324.4,615.2C326.2,610.5 325.8,604.9 326.3,599.7C325.7,599.6 325.2,599.5 324.6,599.3C323,602.7 321.6,606.2 319.9,609.6C313.4,622.6 306.8,635.5 300.2,648.4C299.5,649.7 298.8,651.2 297.7,652.2C296.8,653 295.5,653.2 294.3,653.7C293.9,652.5 293,651.1 293.3,650.2C294.5,646.3 295.7,642.4 297.4,638.8C305,622.8 313,606.9 320.6,590.9C326.7,578 326.6,577.9 324.4,562.5C314,581.4 303.6,600.3 293.2,619.2C292.6,619.1 292,619 291.4,618.9C291.6,616 291.2,612.8 292.2,610.3C295.8,601.6 299.5,592.9 303.9,584.6C310.1,573 317.1,561.8 323.6,550.4C327.5,543.6 326.8,536.3 325.4,527.5C315.5,547 305.6,565.1 294.1,582.3C291.6,577.2 293.2,572.8 295.3,568.7C299.5,560.6 304.3,552.8 308.6,544.8C313.8,535.1 318.9,525.4 323.6,515.5C325.3,511.9 325.6,507.6 326.5,503.6C326,503.3 325.4,503.1 324.9,502.8C323.7,504.3 322.4,505.6 321.4,507.2C313.1,519.3 304.9,531.5 296.5,543.6C295.3,545.3 293.5,546.6 291.9,548C291.3,547.6 290.8,547.2 290.2,546.9C290.9,544.8 291.2,542.5 292.4,540.7C302.7,523.5 313.1,506.3 323.7,489.3C327.3,483.5 325,477.6 325.3,470.8C314.5,480.8 308.8,493.7 298.4,503.4C295.1,498.3 297.2,495.1 299.4,492.2C306.5,482.5 313.8,473 321,463.4C322.6,461.2 324.5,459.2 325.9,456.9C328.1,453.2 330.8,451.5 335.1,453.3C335.1,453.6 334.9,453.4 334.9,453.4Z" style="fill:rgb(2,1,2);fill-opacity:0.4;fill-rule:nonzero;"/>
    <path d="M334.9,448.9L335.1,449.1C333.9,447.5 332.8,445.8 331.4,443.9C328.6,446.9 325.9,449.8 323.2,452.7C322.6,452.4 322,452 321.3,451.7C322.5,447.5 323.6,443.3 324.8,439.1C320.9,437.8 316.8,436.5 312.7,435.1C312.8,434.4 312.9,433.8 312.9,433.1C316.6,432.5 320.3,431.9 324.1,431.3C323.1,427.4 322.1,423.5 321,419.6C321.6,419.2 322.2,418.9 322.8,418.5C325.5,421.6 328.2,424.6 331,427.8C333.7,424.6 336.5,421.4 339.3,418.2C340,418.5 340.6,418.8 341.3,419.1C340.1,423.3 338.9,427.6 337.7,431.8C342.1,433 346.4,434.2 350.8,435.4C350.8,436.2 350.8,437 350.7,437.8C346.5,438.5 342.3,439.3 337.9,440C339,443.9 340,447.9 341.1,451.9C340.6,452.2 340.1,452.5 339.6,452.7C338.1,451.5 336.5,450.2 334.9,448.9Z" style="fill:rgb(2,1,2);fill-opacity:0.4;fill-rule:nonzero;"/>
    <path d="M904,545.3C908.1,550.4 912.2,555.4 916.2,560.5C917.6,562.3 919,564.1 920,566.3C910.6,564.4 908,554.8 901.1,550C901.7,554.4 901.7,554.4 912.7,565.3C917.4,570 921.9,574.8 925.8,580.3C916.1,578.7 913.5,568 905.1,564.3C905.8,570.9 907.3,576.7 912.5,581.3C916.5,584.9 919.8,589.2 923.4,593.2C923,593.7 922.5,594.2 922.1,594.7C918.7,592.1 915.3,589.5 911.6,586.6C910.2,592 912.1,595.5 916.1,598.5C919.1,600.7 921.6,603.5 923.8,606.7C916.5,608.4 913.7,601.9 908,600C912,608.8 916,617.6 919.9,626.1C917.9,626.6 916.3,627.5 915.1,627.1C912.8,626.3 910.1,625.2 908.8,623.4C905.2,618.6 902.2,613.4 898.9,608.3C896.4,603 893.9,597.7 891.4,592.4C890.7,592.8 890.1,593.2 889.4,593.6C892.6,598.4 895.8,603.3 899,608.1C900.5,617.7 904.6,625.5 912.9,631.1C917.1,633.9 921,637 925,640C924.6,640.7 924.2,641.3 923.7,642C920.1,640.3 916.5,638.7 912.1,636.7C915.6,644.1 918.8,651 922.1,657.9C921.6,658.3 921.2,658.8 920.7,659.2C918.5,657.9 916,656.8 914.3,655.1C907,647.8 899.8,640.3 892.7,632.8C891.4,631.5 890.5,629.8 888.9,628.7C887.2,633.4 890,635.5 892.6,637.9C900.9,645.4 909.2,653 917.4,660.6C918.8,661.9 919.8,663.8 921.8,666.5C911,665.8 907.7,656.1 899.4,652.2C905.8,662.3 911.6,671.5 917.4,680.8C917,681.2 916.5,681.6 916.1,682C914.3,680.1 912.3,678.3 910.8,676.3C903.7,666.4 896.7,656.4 889.1,645.7C887.4,652.6 887.1,658.3 892,663.5C895.8,667.5 899.2,671.9 902.5,676.3C903.8,678 904.4,680.1 905.5,682.5C900.9,681.8 900.9,681.8 888.9,667.2C889.5,685.9 890,704.5 890.6,723.5C886.3,722.9 885.3,720.1 885,717.2C884,704.8 883.1,692.5 882.3,680.1C881.9,673.8 881.6,667.6 881.3,660.2C873.1,670.5 871.5,683.1 862.8,691.7C864.5,680.7 870.1,671.3 875.7,661.1C866.7,665.6 860.9,674 850.4,674.8C860.6,667.8 861.8,655.9 866.9,646C865.3,648 863.7,650 862.1,652C860.5,654 859,656.2 857.2,658C855.4,659.9 853.3,661.5 850.9,663.5C852.1,649.4 859.9,639.1 865.1,627.4C858.7,632 852.3,636.6 846,641.3C845.6,640.8 845.1,640.4 844.7,639.9C846,638.4 847.2,636.8 848.7,635.5C855.9,629.1 863.3,622.8 870.4,616.3C872.6,614.3 874.2,611.7 876.1,609.4C875.7,609 875.2,608.6 874.8,608.2C865.1,617.5 855.5,626.7 845.8,636C845.3,635.6 844.7,635.2 844.2,634.7C845.7,632.3 846.9,629.5 848.9,627.5C857.9,618.4 866.9,609.5 876.2,600.7C879.6,597.5 880.9,594.1 879.6,589.1C873.3,593.6 867.5,598 865.8,606.1C865.2,609 864.1,612.5 858.6,607.8C854.8,612.7 851,617.8 847.1,622.8C846.5,622.3 845.9,621.7 845.3,621.2C846.8,614.7 851.2,609.9 856,605.7C862.3,600.1 866.3,593.4 867.3,584.4C861.1,590 855.2,595.3 849.3,600.6C848.6,600.1 848,599.6 847.3,599.1C859,588 868.5,575.6 872.6,560.2C865.9,567.1 861,576.5 852.2,581.9C851.6,581.5 851.1,581.1 850.5,580.7C853.8,575.6 857,570.4 861,564.1C857.1,566.1 854.4,567.4 851.6,568.8C851.3,568.4 851,567.9 850.6,567.5C854.5,559.9 865.3,558 867.7,547.8C864.3,549.8 861.6,551.4 859,553C864.4,544.8 875.9,541.3 875.5,529.3C869.1,535.8 862.6,542.4 856.1,549C855.9,548.8 855.7,548.5 855.5,548.3C859.1,542.3 863.4,536.7 866.2,530.4C869,524.1 870.4,517.1 872.9,508.9C866.4,516.6 860.9,523.1 855.4,529.6C854.8,529.2 854.3,528.9 853.7,528.5C854.5,526.4 855,524.1 856.3,522.3C858.4,519.2 861,516.4 863.4,513.4C865.8,510.4 865.1,508.3 860.5,506.8C862.6,503.5 864.6,500.3 866.7,497.1C866.5,497 866.4,496.8 866.2,496.7C863.6,498.9 861.1,501.2 858.5,503.4C857.9,503 857.3,502.5 856.7,502.1C858.1,499.5 859.2,496.6 861,494.3C864.8,489.4 869.1,484.9 873.1,480.2C874.3,478.7 875.2,476.9 875.5,474.8C871.8,477.9 868.2,481 864.5,484.1C864,483.7 863.6,483.3 863.1,483C863.8,481.6 864.2,480 865.1,478.9C868.3,475.3 871.4,471.5 875,468.4C880.5,463.7 885.2,458.8 887.5,451.7C888.1,449.8 890.1,448.3 892.5,446.4C896.6,458.3 904.7,466.9 913.7,474.8C913.2,475.4 912.7,476 912.2,476.6C909.9,475.9 907.7,475.2 905,474.4C906.5,481.5 916.4,483.2 916.6,491.7C914.5,491.6 913.1,491.5 911.2,491.3C912.6,497.2 914,503 915.3,508.7C914.5,509 913.7,509.3 912.9,509.6C909.4,503 905.8,496.4 902.3,489.8C901.5,495.7 903.1,499 910.4,508.1C914.7,513.5 918.3,519.3 922.5,525.3C916.1,526.1 912.6,520.6 907,519.2C914,526.4 920.9,533.7 927.9,540.9C927.4,541.4 927,541.9 926.5,542.4C918.3,541.3 915.5,532.5 908.2,528.8C911.3,532.4 914,535.4 916.6,538.4C916.2,538.8 915.9,539.3 915.5,539.7C913.2,538.3 910.8,536.9 908.5,535.5C908.2,535.7 908,536 907.7,536.2C913.3,541.7 918.9,547.2 925.3,553.5C918.9,555.3 916,552.4 913.4,549.5C910.7,546.5 908.3,543.7 903.8,545.6C904.1,539 899.8,535.3 893.9,530.9C896.6,537.3 899.2,542 904,545.3ZM909.8,643.3C906.7,631.3 898.2,624.8 888.6,618.9C888.3,623.4 897.6,633.8 909.8,643.3ZM880.6,615.6C880.1,615.4 879.5,615.2 879,614.9C869.4,622.8 867.2,635.2 860.6,644.9C866.8,637.7 872.7,630.4 878.2,622.7C879.6,620.8 879.8,618 880.6,615.6ZM867.7,658.6C880.9,650.7 883.4,645.6 879.2,636.3C875.4,643.5 871.8,650.6 867.7,658.6ZM883,500.6C880,508.2 877.4,514.8 874.4,522.5C883.4,515 885.2,510.4 883,500.6ZM899.4,565.6C898.5,558.6 896.3,553.1 889.6,549.6C890.3,556.8 893.7,561.5 899.4,565.6ZM905.1,589.2C906,588.7 906.9,588.3 907.7,587.8C904.9,582.7 902.1,577.5 899.2,572.4C898.5,572.8 897.7,573.2 897,573.6C899.8,578.8 902.4,584 905.1,589.2ZM881.1,489.9C880.3,489.5 879.6,489 878.8,488.6C875.2,493.9 871.7,499.3 868.1,504.6C868.7,505 869.4,505.4 870,505.8C873.7,500.5 877.4,495.2 881.1,489.9ZM893.6,492.8C893.1,493 892.5,493.2 892,493.4C890.8,503.5 890.8,503.5 897.7,504.8C896.2,500.4 894.9,496.6 893.6,492.8ZM869.5,574.4C870,574.7 870.6,575 871.1,575.3C874.7,568.9 878.3,562.5 881.9,556.1C881.3,555.8 880.7,555.4 880,555.1C876.6,561.5 873.1,567.9 869.5,574.4ZM897.9,587.7C897.2,588.1 896.5,588.4 895.7,588.8C899.1,595.3 902.6,601.7 906,608.2C906.4,608 906.8,607.8 907.2,607.6C904.1,600.9 901,594.3 897.9,587.7ZM873.2,587.1C880.3,582 881.9,577.2 879.3,572C877.5,576.6 875.7,581.2 873.2,587.1ZM896.1,617.6C893.7,612.8 891.8,609.1 889.9,605.3C887.5,612.6 887.9,613.4 896.1,617.6ZM894.1,577.7C892.6,572.7 891.5,568.8 890.3,564.9C888.3,569.7 888,574 894.1,577.7ZM899,528C899.4,527.6 899.8,527.3 900.2,526.9C897.5,523.9 894.9,520.9 891.4,517C890.7,524.4 896.9,524.6 899,528Z" style="fill:rgb(2,1,2);fill-opacity:0.4;fill-rule:nonzero;"/>
    <path d="M898.3,447C893,442 888.2,442.3 883.3,448.1C885.6,441.6 885.9,436.3 878.4,433.6C881.1,433.1 884.5,433.4 886.4,431.9C888.2,430.5 888.4,427.1 890,422.7C891.2,430.9 895,433.9 902.4,431.6C896.2,439.2 896.2,439.2 898.3,447Z" style="fill:rgb(2,1,2);fill-opacity:0.4;fill-rule:nonzero;"/>
    <path d="M162.1,675.7C157.3,680.9 153,685.5 148.7,690.1C148,689.7 147.2,689.3 146.5,688.9C148,680.7 148.9,672.4 151.1,664.4C156.4,645.7 162.4,627.3 167.8,608.6C169.2,603.9 169.4,599 170.1,594.1C169.4,593.8 168.8,593.5 168.1,593.3C166.3,595.1 164.6,597 162.8,598.8C160.9,600.7 159.2,602.9 157.1,604.4C155.8,605.3 152.8,605.8 152.2,605.1C151.1,603.9 150.7,601.4 151.1,599.7C154.1,589 157.2,578.3 160.8,567.7C164.1,558 168.1,548.5 171.7,538.8C173,535.3 174,531.6 175.1,528C174.6,527.6 174.1,527.3 173.6,526.9C171.3,528.6 168.9,530.2 166.7,532.1C164.3,534.2 162.1,536.6 159.6,538.5C158.7,539.2 156.4,539.6 156,539.2C155.2,538.2 154.8,536.4 155.2,535.2C156.6,531.2 158.2,527.3 160,523.5C170,503 180,482.6 190.1,462.1C191.9,458.5 194,458.2 196.5,461.7C199.5,465.8 201.7,470.4 204.6,474.5C216.6,491.6 224.9,510.3 228.6,530.9C229.2,534.4 231.6,538.6 227,540.8C222.7,542.8 219.8,539.4 217.2,536.4C215.8,534.8 214.5,533.1 212.3,531.9C215.4,542.3 218.6,552.8 221.7,563.2C223.2,568.4 224.4,573.7 226.1,578.8C228.3,585.1 231.1,591.2 233.2,597.6C233.9,599.6 233.2,602 233.2,604.3C230.9,603.5 228.5,602.9 226.3,601.7C225.1,601.1 224.5,599.5 223.4,598.2C221,601.7 218.7,604.8 216.7,608C216.3,608.6 216.7,609.9 216.9,610.8C220.2,623.9 223.4,637 226.9,650C228.7,656.7 231.3,663.1 232.9,669.8C234.1,674.6 234.5,679.7 234.6,684.7C234.6,686.2 232.8,688.7 231.3,689.1C229.8,689.5 227.6,688.2 226.1,687.1C224.6,685.9 223.5,684.2 221.9,682.3C218.5,686.1 216.3,692.5 210.5,689.3C206.5,687.1 203.7,682.7 199.6,678.4C200.2,686.8 200.7,694.4 201.3,701.9C201.7,707.1 202.7,712.3 202.8,717.5C202.9,722.3 200.9,723.7 196,723.2C186.5,722.3 185.3,721.1 184.4,711.3C183.4,700.9 182.5,690.5 181.5,680.1C181.4,679.1 180.8,677.4 180.2,677.3C179.1,677 177.4,677.3 176.6,678C175.2,679.2 174.5,681.1 173.2,682.4C171.9,683.7 169.9,685.7 168.6,685.5C166.9,685.2 165.3,683.1 164.2,681.4C163.5,680 163.1,678.1 162.1,675.7ZM192.9,678C198,670.4 201.8,670.3 208.2,677.7C209.8,679.5 211.5,681.3 213.1,683.1C217.3,679.3 217.4,671.5 225.7,674C225.5,671.4 225.5,669.2 225,667.1C221.6,651.4 217,635.9 214.8,620.1C213.4,610 206.3,603.5 203.3,593.2C201.7,596.4 201,598.5 199.7,600.1C198,602.1 195.8,605.3 193.9,605.2C191.9,605.1 189.7,602.1 188.2,599.9C186.5,597.4 185.4,594.5 183.6,590.8C179.5,598.8 175.2,605.3 172.8,612.4C168.5,625 165.4,638 161.8,650.8C159.6,658.6 157.3,666.4 154.8,675.4C163.1,668 163.1,668 169.4,676.6C173.5,674.8 177.4,671.5 181.1,671.8C185.2,672.2 189,675.8 192.9,678ZM188.4,527C186.3,530 184.9,534.3 182.7,534.8C178,535.8 177.8,539.1 176.7,542.2C174.4,548.7 172.2,555.3 170,561.8C166.2,572.9 162.4,584 158.6,595.1C161.7,593.1 163.9,590.4 166.6,588.2C170.1,585.2 172.6,586 174.2,590.3C174.7,591.6 175.2,592.8 175.8,594.6C178.9,590.5 180.7,584.3 186.4,587.2C190,589.1 192.2,593.7 195.3,597.3C196.2,595.8 197,593.9 198.4,592.5C200.1,590.9 202.4,588.7 204.3,588.8C206.2,588.9 208.3,591.4 209.6,593.3C211.2,595.5 212,598.2 213.2,600.7C220.3,593.3 222.5,585.6 218.6,576.6C217.8,574.8 217.7,572.6 217.2,570.7C213.9,559.6 210.6,548.6 207.1,537.1C202.2,542.2 200.2,542.1 196,537.1C193.3,534 191,530.5 188.4,527ZM200.6,530.5C205.7,521 209.2,520.1 219.2,525.9C216.7,504.8 203.4,489.3 193.9,472.2C185,489.7 176.2,507 167.7,523.9C175,520.6 176,520.8 182.6,526.5C188.5,517.2 189.2,517.4 200.6,530.5ZM197,715.7C196.2,706.2 195.4,696.9 194.6,687.8C192.2,686.8 190.2,685.9 187.8,684.9C189.1,694.6 190.4,703.7 191.6,712.9C192,715.8 193.2,717.2 197,715.7Z" style="fill:rgb(2,1,2);fill-opacity:0.4;fill-rule:nonzero;"/>
    <path d="M204.3,466.9C201.1,463.4 197.8,460 193.9,455.8C189.2,460.3 184.6,464.7 179.9,469.1C179.5,468.9 179.1,468.8 178.7,468.6C179,467.2 179,465.6 179.5,464.3C181.2,460.3 183,456.2 185,452.4C186.5,449.5 186.2,447.5 183.6,445.5C180.6,443.2 177.9,440.5 175,438C175.1,437.5 175.3,437 175.4,436.5C178.6,436.2 181.8,435.7 185.1,435.8C188.9,435.9 191,434.5 191.8,430.6C192.2,428.6 193.5,426.8 195,423.5C196.5,426.8 197.6,428.6 198.1,430.6C198.9,433.8 200.8,434.9 203.9,434.7C207.6,434.4 211.4,434.2 215.2,434C215.4,434.5 215.7,435.1 215.9,435.6C213,438.3 210.5,441.5 207.2,443.6C202,446.9 201.9,451.2 203.4,456.2C204.3,459.4 205,462.8 205.8,466.1C205.4,466.3 204.9,466.6 204.3,466.9Z" style="fill:rgb(2,1,2);fill-opacity:0.4;fill-rule:nonzero;"/>
</svg>
