<?xml version="1.0" encoding="UTF-8" standalone="no"?>
<!DOCTYPE svg PUBLIC "-//W3C//DTD SVG 1.1//EN" "http://www.w3.org/Graphics/SVG/1.1/DTD/svg11.dtd">
<svg width="100%" height="100%" viewBox="0 0 432 432" version="1.1" xmlns="http://www.w3.org/2000/svg" xmlns:xlink="http://www.w3.org/1999/xlink" xml:space="preserve" xmlns:serif="http://www.serif.com/" style="fill-rule:evenodd;clip-rule:evenodd;stroke-linejoin:round;stroke-miterlimit:2;">
    <g>
        <g>
            <path d="M45.4,225.7C47.5,227.5 49.3,229.6 50.6,232.1C52,234.6 52.6,236.7 52.6,238.6C52.6,239.6 52.3,240.5 51.8,241.1C51.2,241.7 50.5,242 49.5,242C48,242 47,241 46.4,239C45.8,236.2 44.9,233.9 43.5,232.1C42.1,230.3 40.7,229.4 39.2,229.4C37.9,229.4 36.7,230.2 35.7,231.8C33.8,234.9 32.5,238.7 31.7,243.2C30.9,247.7 30.6,252.8 30.6,258.5C30.6,264.3 30.9,270.2 31.6,276C32.3,281.8 33.1,286.6 34.1,290.3C35,293.9 36.1,295.7 37.2,295.7C38.3,295.7 39.6,293.7 41.2,289.6C42.7,285.9 44.8,279.3 47.6,269.8C47.8,269 48.2,268.4 48.8,267.8C49.4,267.2 50,267 50.7,267C51.7,267 52.5,267.4 53,268.3C53.5,269.1 53.7,270.2 53.5,271.4C49,287.8 45,297.6 41.5,300.7C39.3,302.6 37.2,303.5 35.1,303.5C31.8,303.5 28.8,301.3 26.2,296.9C23.6,292.5 21.5,287 20.1,280.3C18.6,273.6 17.9,267.1 17.9,260.8C17.9,249.6 19.4,240.5 22.4,233.5C25.4,226.5 31,223 39.1,223C41.2,223.1 43.3,223.9 45.4,225.7Z" style="fill:rgb(0,104,56);fill-opacity:0.4;fill-rule:nonzero;"/>
            <path d="M123,260.9C123.3,261.3 123.4,261.8 123.3,262.4C121.5,271.4 119.7,278 117.9,282.3C116.1,286.6 114.4,289.3 112.9,290.3C111.4,291.3 109.6,291.9 107.7,291.9C104.6,291.9 102,291.5 99.9,290.8C97.8,290.1 96,288.5 94.4,286.1C92.8,283.7 91.5,280.2 90.6,275.6C90.5,275.3 90.3,273.1 89.9,268.8C88.8,258.2 87.8,252.7 87.1,252.3C86.6,252 86.1,252.4 85.5,253.4C84.9,254.4 84.2,256 83.4,258.3C81.8,262.4 80.4,267 79.3,272.3C78.2,277.6 77.6,282 77.6,285.6C77.6,286 77.9,288.2 78.4,292.2C78.9,296.2 79.1,298.2 79,298.2C79,299 78.2,299.9 76.7,300.8C75.1,301.7 73.8,302.1 72.8,302.1C71.4,302.1 70.1,300.5 69,297.4C65.2,290 62.6,282.6 61.1,274.9C59.6,267.3 58.8,259.4 58.8,251.4C58.8,244.6 59.3,237.5 60.2,230.1C61.1,222.7 62.4,216.3 64,210.9C65,208.1 66.3,206 67.9,204.8C69.5,203.6 70.7,202.9 71.7,202.8C72.7,202.7 74.1,202.6 76,202.6C76.7,202.6 77.3,203 77.8,203.7C78.4,204.5 78.6,205.1 78.6,205.7C78.6,206.5 78.3,207.3 77.6,208C76.9,208.7 76.5,209.3 76.3,209.6C74.3,213.5 72.7,219 71.5,226.3C70.3,233.6 69.7,241.1 69.7,249.1C69.7,259.4 70.6,267.5 72.5,273.4C74.6,265.7 76.4,259.9 77.9,256.2C79.4,252.5 81.2,249.5 83.4,247.4C84.3,246.5 85.6,245.9 87.1,245.7C89.2,245.4 91.2,245.9 93.2,247.1C95.2,248.3 96.3,250 96.5,252.2C97.3,260.5 98.1,267 99,271.9C99.9,276.7 101,280.3 102.4,282.8C103.8,285.3 105.6,286.5 107.8,286.6C110.1,286.7 112.1,284.6 113.8,280.2C115.5,275.8 116.7,271.3 117.3,266.7C117.4,265.5 117.5,264.6 117.5,264.1C117.5,263.6 117.7,263 117.9,262.5C118.2,261.8 118.7,261.3 119.5,260.9C120.3,260.5 121.1,260.3 121.9,260.3C122.3,260.2 122.7,260.4 123,260.9Z" style="fill:rgb(0,104,56);fill-opacity:0.4;fill-rule:nonzero;"/>
            <path d="M141.4,245.8C138.5,248.5 136.6,251.2 135.7,253.7C134.2,258.1 133.1,263.3 132.4,269.3C131.7,275.2 131.4,281 131.4,286.7C131.4,288.6 131.5,290.4 131.8,292.3C132.1,294.1 132.3,295.3 132.4,295.8C133,299.2 133.2,301.7 133.2,303.4C133.2,304.6 133,305.4 132.6,305.9C132.2,306.3 131.5,306.6 130.5,306.8C129,307 128,307.1 127.4,307.1C125.7,307.1 124.5,306.8 123.8,306.3C123.1,305.8 122.5,304.9 122,303.7C119.5,296.6 117.7,288.6 116.5,279.5C115.3,270.5 114.7,261.8 114.7,253.6C114.7,249.4 115.1,246.4 115.9,244.7C116.7,243 118.7,242.3 121.8,242.4C122.7,242.6 123.4,243 123.8,243.7C124.2,244.4 124.3,245.1 124.2,246C123.8,248.6 123.6,251.8 123.6,255.6C123.6,261.1 124.2,267.4 125.3,274.7C125.7,268.5 126.2,263.3 126.9,259.2C127.6,255.1 128.8,251.3 130.6,247.9C132.4,244.5 135,241.8 138.4,239.8C139.2,239.3 139.9,239.1 140.5,239.1C141.3,239.1 142.1,239.4 142.6,240.1C143.2,240.8 143.4,241.8 143.4,243.1C143.5,243.5 142.8,244.4 141.4,245.8Z" style="fill:rgb(0,104,56);fill-opacity:0.4;fill-rule:nonzero;"/>
            <path d="M158.2,247.4C157.6,252.9 157.4,258.8 157.4,265.1C157.4,270.5 157.5,274.6 157.7,277.4C158.1,284.8 158.9,290.4 160.1,293.9C161.3,297.5 161.9,299.5 161.9,299.8C161.9,300.5 161.6,301.1 161.1,301.6C160.6,302.2 159.9,302.4 159.1,302.4C157,302.5 155.4,302 154.4,300.9C153.3,299.8 152.6,298.5 152.1,296.9C151.7,295.3 151.2,292.9 150.6,289.7C149.9,283.5 149.6,278.7 149.5,275.4C149.3,271.1 149.2,267.5 149.2,264.7C149.2,259 149.4,253.2 149.8,247.6C149.8,246.8 150.2,246.2 150.9,245.6C151.7,245 152.5,244.5 153.6,244.3C154.6,244 155.4,244 156,244.3C157.4,244.5 158.2,245.6 158.2,247.4ZM157.4,231.2C158.5,232.1 159,233.1 159,234.1C159,234.9 158.6,235.7 157.9,236.4C157.1,237.1 156.2,237.7 155.2,238C154.1,238.2 152.9,237.9 151.8,237.1C150.7,236.3 150.1,235.3 150,234.2L150,233.6C149.9,232.7 150.3,231.8 151.1,231.1C151.9,230.3 152.8,229.9 153.9,229.8C155.1,229.8 156.3,230.3 157.4,231.2Z" style="fill:rgb(0,104,56);fill-opacity:0.4;fill-rule:nonzero;"/>
            <path d="M200.2,288.9C199.6,289.4 199,289.8 198.2,290.3C197.4,290.8 196.9,291.1 196.6,291.4C197.6,293.9 198.2,296.3 198.2,298.6C198.2,302.7 196.8,306 194.1,308.6C191.4,311.2 187.5,312.4 182.6,312C180.3,311.9 178.5,311 176.9,309.4C175.4,307.7 174.7,305.9 174.9,304C175.1,301.9 175.5,300.3 176.2,299.3C176.9,298.2 178.5,296.5 180.9,294.3L186,289.4L181.2,282.2C177.3,276.4 174.6,272 172.9,269.2C169.4,263.2 167.7,257.7 167.7,252.7C167.7,249.4 168.5,246.1 170.2,242.9C171.9,239.6 174.1,237.3 176.7,235.8C178.3,234.8 180.3,234.2 182.8,234C185.4,234 188.2,234.9 191.1,236.7C194,238.5 196.2,241.3 197.7,245C199,248.1 199.7,251.2 199.7,254.2C199.7,255.3 199.7,256.2 199.6,256.9C199.5,257.7 199.2,258.6 198.7,259.6C198.2,260.5 197.5,261 196.7,261C194.3,261 193.2,260.4 193.2,259.3C193.2,258.9 193.3,258.4 193.5,257.7C193.7,257 193.8,256.4 193.9,255.9L194,254.2C194,251.8 193.5,249.6 192.6,247.3C191.7,245.1 190.5,243.3 189.1,241.9C187.7,240.5 186.3,239.8 185,239.8C183.5,239.8 182,240.8 180.6,242.8C179.2,244.8 178.5,247.2 178.5,250.2C178.5,251 178.5,251.6 178.6,252C179.1,256 180.3,260.2 182.4,264.6C184.5,269 187.9,275.3 192.6,283.5L194.2,286.2C194.3,286.2 194.9,286 196,285.5C197.1,285 198,284.8 198.8,284.8C199.6,284.8 200.3,285.3 200.8,286.4L201.1,287.5C201,287.9 200.7,288.5 200.2,288.9ZM187.2,304.7C188,303.4 188.5,301.8 188.7,299.7L188.7,298.4C188.7,297.7 188.6,296.8 188.4,295.4C183.8,299.5 181.5,302.4 181.5,304.2C181.5,305.6 182.4,306.4 184.3,306.5C185.5,306.6 186.4,306 187.2,304.7Z" style="fill:rgb(0,104,56);fill-opacity:0.4;fill-rule:nonzero;"/>
            <path d="M229.6,240.7C229,241.1 228.3,241.3 227.3,241.3L220.4,241C220.1,241 220,241.1 220,241.3C220,251.3 220.3,262.3 220.8,274.4C221.4,286.5 222.1,297.9 223.1,308.6L223.1,309C223.1,311.3 222.2,312.4 220.3,312.4C217.9,312.4 216.3,312.2 215.4,311.7C214.5,311.2 213.9,310.5 213.8,309.4C212.6,293.9 211.8,282.3 211.3,274.5C210.9,266.7 210.7,257.9 210.7,248.1L210.7,241L205.6,241.1C203.3,241.1 202,240.5 201.5,239.4L201.4,238.7C201.4,238 201.7,237.5 202.2,236.9C202.8,236.4 203.4,236 204.2,235.8C206.4,235.4 208.6,235.2 211,235.2C211.3,231.9 211.8,228.1 212.5,223.8C213.2,219.5 214.1,216 215.1,213.3C215.4,212.6 216.3,212.1 217.8,211.6C219.3,211.1 220.6,210.9 221.6,210.9C222.8,210.9 223.7,211.2 224.2,211.7C224.7,212.3 224.8,212.9 224.6,213.5C224.1,214.7 223.4,218.2 222.3,224C221.3,229.8 220.7,233.4 220.6,235C224.1,235 226.7,235.2 228.4,235.7C230,236.2 230.7,237.2 230.5,238.8C230.4,239.7 230.1,240.2 229.6,240.7Z" style="fill:rgb(0,104,56);fill-opacity:0.4;fill-rule:nonzero;"/>
            <path d="M321.1,269.1C321.5,269.6 321.7,270.2 321.6,270.9C319.9,278.8 318.6,284.4 317.6,287.5C316.6,290.7 315.1,293 313.1,294.6C311.1,296.2 308.1,297 304.1,297C300.1,297 297,296 294.6,294C292.2,292 290.5,289.7 289.4,287C288.3,284.3 287.3,281 286.4,277.2C285.2,272 284.6,265.9 284.6,258.8L284.7,248.1C284.7,245.7 284.6,244.6 284.4,244.6C283.9,244.6 283.1,246.5 282,250.3C280.8,254.1 279.8,258 279,262.2C277.1,273.3 276.2,283.4 276.2,292.3C276.2,296 276.2,298.3 276.3,299.4C276.1,300.8 275.8,301.8 275.5,302.4C275.1,303 274.5,303.2 273.7,303.2C272,303.2 270.4,302.9 269,302.4C267.5,301.9 266.8,301.3 266.7,300.6C265.8,292.2 264.4,282.1 262.5,270.3C260.7,258.5 259.5,252.5 258.9,252.4C257.9,252.1 256.7,255 255.4,261.2C254.1,267.3 253.3,272.5 252.9,276.8C252.7,278.5 252.6,280.8 252.6,283.6C252.6,287 252.8,291.7 253.2,297.7C253.2,300 252.1,301.1 249.9,301.1C248.2,301.1 246.5,300.6 244.7,299.6C242.9,298.6 241.5,297 240.6,294.7C237.7,288.1 235.8,281.9 235.1,276.2C234.3,270.5 234,264.2 234,257.5C234,253.7 234.3,250.6 235,248C235.1,247 235.6,246.1 236.6,245.5C237.6,244.9 239.1,244.6 241.1,244.6C241.9,244.6 243,244.8 244.3,245.2C245.6,245.6 246.2,246.2 246.2,247C246,247.7 245.7,249.3 245.3,252C244.9,254.7 244.7,256.9 244.7,258.7C244.7,263.5 245.5,269.3 247,275.9C247.6,268.7 248.8,262.4 250.7,256.7C252.6,251.1 255.1,247.5 258,246C258.6,245.7 259.1,245.6 259.7,245.6C261.4,245.6 262.8,247 263.8,249.8C264.6,252.7 265.6,257.4 266.8,263.8L269.9,282C270.6,273 272.1,264.3 274.5,255.6C276.9,247 279.2,241.5 281.5,239.3C282.3,238.4 283.5,237.8 284.9,237.6C286.2,237.4 287.2,237.3 287.7,237.3C290.4,237.3 292.3,238 293.4,239.5C294.5,241 295.1,243 295.3,245.6C295.4,247.8 295.5,250.1 295.6,252.5C295.7,254.9 295.8,257.4 296,259.9C296.4,268.7 296.8,275.1 297.1,279.1C297.5,283.1 298.3,286.2 299.5,288.4C300.7,290.6 302.6,291.7 305.2,291.7C307.9,291.8 309.9,290.1 311.2,286.5C312.5,282.9 313.4,279.6 313.9,276.5C314.4,273.4 314.8,271.5 315,270.7C315.2,269.9 315.7,269.1 316.6,268.5C317.4,267.9 318.2,267.7 319,267.9C319.9,268.3 320.7,268.7 321.1,269.1Z" style="fill:rgb(0,104,56);fill-opacity:0.4;fill-rule:nonzero;"/>
            <path d="M383,263.2C381,273.9 379.2,281.9 377.4,287.1C375.7,292.3 373.6,295.8 371.2,297.6C368.8,299.4 365.5,300.3 361.4,300.1C354.8,299.8 350.3,296.2 348,289.4C345.6,282.5 344.5,272.8 344.5,260.1C343.4,262.3 342.1,264.9 340.8,267.9C340.2,269.1 338.8,272 336.6,276.6C334.4,281.2 332.4,284.7 330.6,287.3C328.1,290.8 325.6,292.5 322.8,292.5C320.2,292.5 317.9,290.9 316,287.7C314.1,284.5 313.2,280.5 313.2,275.8C313.2,269.4 314,262.8 315.7,256.1C317.3,249.4 319.5,244.5 322.3,241.6C324.9,238.9 328.2,237.5 332.1,237.5C334.6,237.5 337.1,238.1 339.5,239.4C341.9,240.7 343.8,242.4 345.4,244.7C345.7,243.6 346,242.8 346.2,242.3C346.7,241.5 347.5,240.8 348.8,240.3C350.1,239.8 351.4,239.5 352.8,239.5C354.3,239.5 355.5,239.8 356.5,240.4C357.4,241 357.8,241.9 357.6,243C357.1,245.5 356.8,248.9 356.5,253.3C356.2,257.7 356.1,262.3 356.1,266.9C356.1,274.8 356.6,281.4 357.7,286.6C358.7,291.8 360.4,294.4 362.8,294.4C365.5,294.4 367.8,291.9 369.7,286.8C371.6,281.7 373.4,275.4 375.2,267.9C375.6,266 376,264.4 376.3,263.1C376.6,262.2 377.1,261.4 377.9,260.9C378.7,260.4 379.5,260.2 380.4,260.3C382.3,260.5 383.2,261.5 383,263.2ZM336.3,266.2C338.8,260.6 340.7,255.9 341.8,252.1C341.1,249.7 340.2,247.7 338.9,246.4C337.6,245 336.2,244.4 334.7,244.4C333.1,244.4 331.7,245 330.5,246.2C328.3,247.9 326.3,252.3 324.4,259.5C322.5,266.7 321.5,273.2 321.5,279C321.5,283.5 322.2,286 323.6,286.5C324.5,286.7 326.2,284.8 328.7,280.7C331.2,276.5 333.8,271.7 336.3,266.2Z" style="fill:rgb(0,104,56);fill-opacity:0.4;fill-rule:nonzero;"/>
            <path d="M406.4,288.9C405.8,289.4 405.2,289.8 404.4,290.3C403.6,290.8 403.1,291.1 402.8,291.4C403.8,293.9 404.4,296.3 404.4,298.6C404.4,302.7 403,306 400.3,308.6C397.6,311.2 393.7,312.4 388.8,312C386.5,311.9 384.7,311 383.1,309.4C381.6,307.7 380.9,305.9 381.1,304C381.3,301.9 381.7,300.3 382.4,299.3C383.1,298.2 384.7,296.5 387.1,294.3L392.2,289.4L387.4,282.2C383.5,276.4 380.8,272 379.1,269.2C375.6,263.2 373.9,257.7 373.9,252.7C373.9,249.4 374.7,246.1 376.4,242.9C378.1,239.6 380.3,237.3 382.9,235.8C384.5,234.8 386.5,234.2 389,234C391.6,234 394.4,234.9 397.3,236.7C400.2,238.5 402.4,241.3 403.9,245C405.2,248.1 405.9,251.2 405.9,254.2C405.9,255.3 405.9,256.2 405.8,256.9C405.7,257.7 405.4,258.6 404.9,259.6C404.4,260.5 403.7,261 402.8,261C400.4,261 399.3,260.4 399.3,259.3C399.3,258.9 399.4,258.4 399.6,257.7C399.8,257 399.9,256.4 400,255.9L400.1,254.2C400.1,251.8 399.6,249.6 398.7,247.3C397.8,245.1 396.6,243.3 395.2,241.9C393.8,240.5 392.4,239.8 391.1,239.8C389.6,239.8 388.1,240.8 386.7,242.8C385.3,244.8 384.6,247.2 384.6,250.2C384.6,251 384.6,251.6 384.7,252C385.2,256 386.4,260.2 388.5,264.6C390.6,269 394,275.3 398.7,283.5L400.3,286.2C400.4,286.2 401,286 402.1,285.5C403.2,285 404.1,284.8 404.9,284.8C405.7,284.8 406.4,285.3 406.9,286.4L407.2,287.5C407.3,287.9 407,288.5 406.4,288.9ZM393.5,304.7C394.3,303.4 394.8,301.8 395,299.7L395,298.4C395,297.7 394.9,296.8 394.7,295.4C390.1,299.5 387.8,302.4 387.8,304.2C387.8,305.6 388.7,306.4 390.6,306.5C391.7,306.6 392.7,306 393.5,304.7Z" style="fill:rgb(0,104,56);fill-opacity:0.4;fill-rule:nonzero;"/>
        </g>
    </g>
    <g>
        <g>
            <path d="M164.1,168.7C162,179.5 160.3,187.4 158.8,192.3C157.3,197.2 155.4,200.7 153.1,202.7C150.8,204.7 147.5,205.7 143.1,205.7C138.8,205.7 135.3,204.7 132.6,202.7C129.9,200.7 128,198.3 126.7,195.5C125.5,192.7 124.3,189.3 123.3,185.3C121.8,179.2 121,172.2 121,164.1L121.2,151.1C118.6,157 116.2,164.5 114,173.7C111.8,182.9 110.2,191.9 109.1,200.6L108.8,204C108.7,206.8 108.5,209 108.3,210.6C108,212.2 107.4,213.2 106.5,213.5C105.4,213.9 104.4,214.1 103.6,214.1C102.5,214.1 101.6,213.5 101.1,212.2C98.8,206.8 96.2,198.4 93.3,186.9C90.4,175.4 88.7,166.6 88.3,160.4C87.3,171.2 86.8,179.6 86.8,185.6C86.8,193.2 87.2,199.9 88,205.5C88.8,211.1 89.2,214.2 89.2,214.9C89.2,215.8 88.9,216.6 88.3,217.2C87.7,217.8 86.9,218.1 86,218.1C81.2,218.1 78.7,217.2 78.7,215.3C77,202.9 76.2,191.6 76.2,181.3C76.2,169.2 77.3,158.5 79.6,149.1C79.8,148.3 80.8,147.6 82.5,147.1C84.3,146.6 85.6,146.3 86.7,146.3C89.7,146.5 92,146.9 93.7,147.6C95.4,148.3 96.5,149.4 96.9,151.1C98.7,163.2 100.2,173.3 101.5,181.4C101.5,181.6 102.3,186.7 104,196.6L105.4,188.6C107.2,177.7 108.8,169.4 110.3,163.8C111.8,158.2 114.5,150.9 118.3,141.9L120,138.3C121.1,136 122.1,134.5 122.8,133.6C123.5,132.7 124.6,132.3 126,132.3C128.6,132.4 131,132.8 133.1,133.6C135.3,134.4 136.3,135.1 136.2,135.8C135.1,147.2 134.5,157.8 134.5,167.4C134.5,178.7 135.4,187.1 137.1,192.5C138.9,197.9 141.3,200.5 144.4,200.5C147.9,200.5 150.5,197.6 152.2,191.9C153.9,186.2 155.3,179.4 156.5,171.6L157,168.5C157.1,167.8 157.6,167.2 158.5,166.6C159.4,166.1 160.2,165.8 161.1,165.8C163.3,165.7 164.4,166.7 164.1,168.7Z" style="fill:rgb(237,28,36);fill-opacity:0.4;fill-rule:nonzero;"/>
            <path d="M184.6,184.5C185.1,185.3 185.2,186.1 185,186.9C184.1,191.2 182.3,196.7 179.8,203.3C177.3,209.9 175.2,214.2 173.7,216.3C172.2,218.2 170.3,219.1 168.3,219.1C162.7,219.1 158.7,217.5 156.2,214.3C153.7,211.1 152.2,207.4 151.6,203.2C151.1,199 150.8,193.3 150.8,186.2C150.8,183.2 151,180.3 151.3,177.5C150.9,177.4 150.1,177.3 149,177.3C147.9,177.2 147,177 146.4,176.6C145.8,176.2 145.5,175.3 145.5,173.8C145.5,172.9 146,172.2 146.9,171.8C147.8,171.4 148.9,171.2 150.1,171.2C151.1,171.2 151.8,171.3 152.1,171.4C153.3,166 154.7,161.4 156.3,157.6C157.8,153.8 160.1,150.6 163.2,148.1C166.2,145.6 170.2,144.3 175.2,144.3C176.8,144.3 178.4,144.7 179.8,145.5C181.2,146.3 182.3,147.5 183.1,149.1C184,151.1 184.5,153.1 184.5,155.3C184.5,160.5 182.4,165.1 178.3,169.3C174.2,173.5 169,176.4 162.8,178C162.7,178.8 162.6,180.7 162.6,183.6C162.6,190.9 163.2,197.7 164.3,204C165.4,210.2 166.6,213.3 167.7,213.3C168.6,213.3 170,211.3 171.7,207.4C173.3,203.8 174.8,199.7 176.2,195.2C177.5,190.7 178.3,187.5 178.5,185.8C178.8,183.8 180.1,183 182.5,183.2C183.5,183.3 184.1,183.7 184.6,184.5ZM174.6,150.3C172.7,150.3 170.8,152.5 168.7,156.8C166.6,161.1 165.1,166 164.1,171.3C166.5,170.8 168.7,169.6 170.9,167.7C173.1,165.8 174.8,163.7 176.2,161.4C177.4,159 178.1,156.9 178.1,155.1C178.1,153.8 177.7,152.5 176.9,151.4C176.1,150.6 175.4,150.3 174.6,150.3Z" style="fill:rgb(237,28,36);fill-opacity:0.4;fill-rule:nonzero;"/>
            <path d="M219.6,156.9C216.4,159.9 214.3,162.8 213.4,165.6C211.7,170.4 210.6,176.1 209.8,182.6C209.1,189.1 208.7,195.4 208.7,201.6C208.7,203.7 208.9,205.7 209.2,207.7C209.5,209.7 209.7,211 209.8,211.5C210.4,215.2 210.7,218 210.7,219.9C210.7,221.2 210.5,222.1 210.1,222.6C209.7,223.1 208.9,223.4 207.8,223.6C206.1,223.8 205,223.9 204.4,223.9C202.5,223.9 201.2,223.6 200.5,223C199.7,222.4 199.1,221.5 198.6,220.1C195.9,212.4 193.9,203.5 192.6,193.6C191.3,183.7 190.6,174.3 190.6,165.3C190.6,160.7 191,157.4 191.9,155.6C192.8,153.7 194.9,152.9 198.3,153.1C199.3,153.3 200.1,153.8 200.5,154.5C201,155.2 201.1,156 200.9,157C200.5,159.9 200.3,163.4 200.3,167.5C200.3,173.5 200.9,180.4 202.2,188.4C202.6,181.6 203.2,175.9 203.9,171.5C204.6,167 206,162.9 207.9,159.1C209.9,155.3 212.7,152.4 216.4,150.2C217.2,149.7 218,149.4 218.7,149.4C219.6,149.4 220.4,149.8 221,150.5C221.6,151.2 221.9,152.3 221.9,153.7C222,154.3 221.2,155.4 219.6,156.9Z" style="fill:rgb(237,28,36);fill-opacity:0.4;fill-rule:nonzero;"/>
            <path d="M255.7,156.9C252.5,159.9 250.4,162.8 249.5,165.6C247.8,170.4 246.7,176.1 245.9,182.6C245.2,189.1 244.8,195.4 244.8,201.6C244.8,203.7 245,205.7 245.3,207.7C245.6,209.7 245.8,211 245.9,211.5C246.5,215.2 246.8,218 246.8,219.9C246.8,221.2 246.6,222.1 246.2,222.6C245.8,223.1 245,223.4 243.9,223.6C242.2,223.8 241.1,223.9 240.5,223.9C238.6,223.9 237.3,223.6 236.6,223C235.8,222.4 235.2,221.5 234.7,220.1C232,212.4 230,203.5 228.7,193.6C227.4,183.7 226.7,174.3 226.7,165.3C226.7,160.7 227.1,157.4 228,155.6C228.9,153.7 231,152.9 234.4,153.1C235.4,153.3 236.2,153.8 236.6,154.5C237.1,155.2 237.2,156 237,157C236.6,159.9 236.4,163.4 236.4,167.5C236.4,173.5 237,180.4 238.3,188.4C238.7,181.6 239.3,175.9 240,171.5C240.7,167 242.1,162.9 244,159.1C246,155.3 248.8,152.4 252.5,150.2C253.3,149.7 254.1,149.4 254.8,149.4C255.7,149.4 256.5,149.8 257.1,150.5C257.7,151.2 258,152.3 258,153.7C258,154.3 257.2,155.4 255.7,156.9Z" style="fill:rgb(237,28,36);fill-opacity:0.4;fill-rule:nonzero;"/>
            <path d="M313.7,192.2C312.3,192 311.3,191.9 310.8,191.9C309.3,191.9 307.7,192.4 306.2,193.3C306.2,194.8 305.9,199.3 305.3,206.8C304.8,214.6 303.5,220.5 301.6,224.5C299.6,228.5 297.3,231 294.5,232.2C291.7,233.3 288.3,233.9 284.1,233.9C280.4,233.9 277.1,232.5 274.2,229.6C271.3,226.8 269.9,223.1 269.9,218.5C269.9,212.2 272.2,206.6 276.8,201.6C281.4,196.6 287.8,192.4 296.1,188.9L296.7,164.5C292.7,173.1 289,180.5 285.7,186.9C283.5,190.8 281.6,193.8 279.8,195.9C278,198 276.1,199.1 273.9,199.1C269.1,199.1 265.9,197.2 264.3,193.5C262.8,189.8 262,184.5 262,177.6C262,173.2 262.3,168.6 263,163.8C263.7,159.1 264.6,154.8 265.7,151C266.2,149.9 267.2,149 268.7,148.3C270.2,147.6 271.4,147.3 272.3,147.3C273.3,147.3 274.2,147.7 274.9,148.5C275.6,149.3 275.9,150.2 275.8,151.4C274.4,156.2 273.2,160.4 272.5,163.9C271.7,167.4 271.3,171.8 271.3,177.2C271.3,180.8 271.6,184.4 272.1,188C272.6,191.6 273.4,193.4 274.4,193.4C274.9,193.4 276.3,191.2 278.6,186.7L280,183.9C285.2,173.3 290.4,162.4 295.6,151.3C296.1,150.2 297.2,149.3 299,148.6C300.8,147.9 302.4,147.6 303.8,147.6C306.1,147.6 307.2,149.7 307,153.9L306.1,186.7C307.4,186 309.2,185.6 311.4,185.6C313.3,185.6 314.8,185.9 315.9,186.5C317,187.1 317.6,188 317.6,189.1L317.3,190.3C316.3,191.9 315.1,192.5 313.7,192.2ZM295,208.7C295.4,201.7 295.6,197.4 295.6,195.7C292,197.4 289,199 286.8,200.7C284.5,202.4 282.6,204.2 281.1,206.3C277.9,210.2 276.3,214.2 276.3,218.2C276.3,221.3 277.4,223.9 279.5,225.9C280.8,227 282.3,227.6 284,227.6C285.9,227.6 287.4,226.9 288.5,225.4C292,221.6 294.2,216.1 295,208.7Z" style="fill:rgb(237,28,36);fill-opacity:0.4;fill-rule:nonzero;"/>
        </g>
    </g>
    <g>
        <path d="M360,120.2C359.5,120.2 359,120.6 358.9,121.1C358.8,121.3 358.7,121.5 357.5,123.2C356.7,124.2 355.6,125.7 355.1,126.4C354.1,127.8 353.8,128.2 353,129.2C352.8,129.5 352.4,130 352.2,130.3C351.5,131.2 350.3,132.8 350.2,132.8C350.2,132.8 349.9,132.2 349.6,131.4C348.8,129.2 348.1,127.5 346.8,124.5C346.5,123.9 346.1,122.9 345.8,122.2C345.1,120.5 345,120.2 344.7,120C344.2,119.6 343.6,119.7 343.2,120.2C343,120.4 342.9,120.9 343,121.1C343.2,121.7 344.3,124.4 344.9,125.6C346,128.1 346.5,129.3 347.1,130.9C347.4,131.6 348,133.4 348,133.5C348,133.6 347.1,133.4 342.5,132.4C338.6,131.6 336.9,131.3 336.7,131.3C335.8,131.3 335.3,132.4 335.9,133.1L336.1,133.3L342.1,134.6C345.4,135.3 348.3,135.9 348.5,136L348.9,136.1L349.1,136.7C349.7,138.3 351.3,143.5 351.8,145.3C352.3,147 352.6,148.3 352.6,148.3C352.6,148.3 352.3,148.2 352,148.1C349.8,147.4 347.7,147 344,146.7C342.8,146.6 340.7,146.6 340.3,146.7C339.8,146.8 339.6,147.1 339.5,147.5C339.3,148.4 340.1,149 341.1,148.8C341.7,148.7 343.4,148.7 346,149C348.3,149.2 350,149.6 351.8,150.3C352.7,150.6 353,150.8 353.2,151C353.3,151.2 353.5,151.8 354.2,154.7C354.7,156.6 355.8,161.5 355.8,161.5C355.8,161.5 354,161.2 351.9,160.7C347.8,159.9 347.8,159.9 347.4,160C347,160.2 346.7,160.8 346.8,161.2C346.9,161.5 347.1,161.8 347.3,161.9C347.4,162 348.8,162.2 351.7,162.8C354,163.3 356,163.7 356.1,163.7C356.3,163.8 356.3,163.9 356.6,165.6C357,167.5 357.2,169.2 357.3,171C357.4,171.7 357.4,172.4 357.4,172.4C357.4,172.5 357.5,172.9 357.6,173.1C357.9,173.5 358.5,173.6 359,173.3C359.3,173.1 359.5,172.8 359.5,172.5C359.5,172.2 359.3,169.6 359.2,168.6C359,167.4 358.8,166 358.6,164.8L358.4,163.7L358.8,163.2C359,162.9 359.5,162.3 359.8,161.8C360.8,160.3 361.3,159.6 363.4,156.7C364.5,155.2 365.5,153.9 365.5,153.7C365.7,153.3 365.7,152.7 365.3,152.4C365.1,152.2 364.7,152 364.3,152.1C364,152.1 363.7,152.4 363.6,152.7C363.6,152.8 362.7,154 361.6,155.4C359.5,158.2 359,159 358.3,160C358,160.4 357.8,160.7 357.8,160.7C357.8,160.7 357.7,160.6 357.7,160.5C357.7,160.2 357,157.2 356.6,155.5C356.2,153.9 355.5,151 355.3,150.1C355.2,149.6 355.2,149.6 355.3,149.4C355.3,149.3 355.4,149.2 355.5,149.1C355.9,148.3 357.2,146.2 358.4,144.4C359.2,143.2 360,142 360.2,141.6C360.4,141.3 361,140.3 361.6,139.4C362.6,137.9 362.6,137.8 362.7,137.5C362.8,137 362.4,136.4 361.9,136.2C361.3,136 360.7,136.3 360.5,136.9C360.5,137 360.1,137.6 359.7,138.2C359.3,138.8 358.7,139.7 358.3,140.3C358,140.8 357.1,142.2 356.3,143.3C355.6,144.4 354.8,145.6 354.6,145.9C354.4,146.2 354.3,146.5 354.3,146.5C354.3,146.5 354.1,145.9 353.9,145.1C353.2,142.6 351.9,138.4 351.1,136C350.7,134.8 350.7,134.8 350.8,134.7C350.8,134.6 351.1,134.4 351.3,134.2C352,133.4 353.6,131.4 356.5,127.5C357.6,126 358.2,125.2 359.8,123.1C361,121.5 361.1,121.3 361,120.8C361,120.6 360.5,120.2 360,120.2Z" style="fill:rgb(237,28,36);fill-opacity:0.4;fill-rule:nonzero;"/>
        <path d="M401.4,130C401.3,130 401.1,130.1 401,130.2C400.6,130.4 400.6,130.4 400.1,133.6C399.7,136.1 399.4,138 399.1,140.6C399,141 398.9,142 398.9,142.7C398.8,143.4 398.7,144.3 398.6,144.7L398.5,145.5L397.6,146.3C396.4,147.3 392.5,150.8 391.7,151.6C391.3,151.9 391,152.2 391,152.2C390.9,152.2 390.9,152.2 390.9,150.7C390.9,150 390.8,148.7 390.8,147.6L390.8,143.5C390.8,139.2 390.8,139.5 390.5,139.2C390.3,139 390.1,138.8 389.7,138.8C389.2,138.7 388.7,139.1 388.6,139.6L388.6,147.7C388.6,148.9 388.6,150.5 388.7,151.4C388.8,152.7 388.8,154.4 388.8,154.4L387.6,155.6C384.6,158.6 382.9,160.5 381.4,162.2L380.3,163.5L380.3,159.4C380.2,158.3 379.7,150.7 379.6,150.2C379.5,149.6 379.2,149.3 378.7,149.2C377.9,149 377.2,149.7 377.5,150.6C377.6,150.8 378.1,157.6 378.2,159.1L378.2,161.7C378.2,162.7 378.2,163.8 378.3,164.5C378.4,165.5 378.4,165.6 378.3,165.9C378.3,166.1 378.2,166.3 378.2,166.4C378.2,166.6 377.9,166.9 376.2,169C375.1,170.3 374,171.8 373.6,172.4C373.2,172.9 372.6,173.7 372.3,174.2C371.7,175 371.6,175 371.6,175.4C371.5,175.7 371.6,175.8 371.6,176C371.9,176.6 372.6,176.9 373.2,176.5C373.4,176.3 374.2,175.4 375.4,173.7C375.9,173 376.6,172.1 377,171.6C377.4,171.2 378.2,170.1 378.9,169.2C380.1,167.7 380.2,167.6 380.3,167.6C381.7,167.7 386.6,168.1 390.4,168.5C391.8,168.7 393,168.8 393.1,168.8C393.6,168.8 394.1,168.4 394.2,167.9C394.3,167.2 393.9,166.7 393.3,166.6C389.2,166.2 384.8,165.8 382.8,165.6C382.3,165.6 381.9,165.5 381.9,165.5C381.9,165.5 383.3,163.9 384.4,162.6C385.6,161.2 389.2,157.5 390.6,156.1C391.2,155.5 391.3,155.4 391.4,155.5C391.6,155.6 392.4,155.8 393.5,156.1C394.7,156.4 395.3,156.6 396.4,157.1C397.6,157.6 400.5,158.8 401.3,159.1C402,159.4 402.2,159.4 402.6,159.3C402.9,159.1 403.1,158.9 403.2,158.5L403.2,158.1C403.2,157.9 402.9,157.6 402.8,157.4C402.6,157.2 396.7,154.8 395.6,154.4C395.3,154.3 393.4,153.7 393.3,153.7L393.3,153.6C393.3,153.5 398.7,148.7 400.6,147.1L401.4,146.4L402.7,146.7C403.4,146.9 404.4,147.1 404.8,147.2C405.3,147.3 406.4,147.6 407.2,147.8C411.7,148.9 411.7,148.9 412,149.1C412.2,149.2 412.4,149.3 412.6,149.3C413.4,149.4 413.8,149.3 414.1,148.9C414.5,148.4 414.4,147.7 413.8,147.3C413.5,147.1 412.9,147 408.9,146C406.2,145.4 404.2,144.9 403.7,144.7L403.4,144.6L404,144.1C404.3,143.8 405.3,143 406.1,142.4C406.9,141.7 408.2,140.6 409,140C409.8,139.4 410.5,138.8 410.6,138.7C411.1,138.2 411.1,137.4 410.6,137C410.4,136.8 409.9,136.8 409.6,136.8C409.3,136.9 408.9,137.2 408.8,137.3C408.8,137.4 408.5,137.6 408.1,137.9C406.6,139.1 405.9,139.7 404.3,141C403.4,141.8 402.3,142.7 402,143C401.6,143.3 401.3,143.6 401.3,143.6C401.2,143.6 401.7,139.9 402.6,134.2C403,131.7 403,131.4 403,131.2C402.5,130.2 402,129.9 401.4,130Z" style="fill:rgb(237,28,36);fill-opacity:0.4;fill-rule:nonzero;"/>
        <path d="M334.1,156.2C333.6,156.2 333.2,156.4 333,156.6C332.7,156.8 332.7,157 332.4,158C331.8,160.4 331.8,162.7 332.3,164.5C332.6,165.8 333.2,167 333.9,168.1C335.2,170.1 336.4,171.2 338.7,172.2C339.9,172.8 340.5,173 341.1,173.2C341.6,173.3 341.7,173.3 341.9,173.3C342.3,173.2 342.7,172.8 342.8,172.4C343.5,170.3 343.5,169.5 343.4,168C343.2,166.4 342.6,164.6 341.9,163.1C340.7,160.9 338,157.9 336.3,156.9C335.6,156.5 334.6,156.2 334.1,156.2ZM335.2,158.7C336.6,159.5 339,162.2 340,164C340.8,165.5 341.4,167.5 341.4,169C341.4,169.4 341.2,170.8 341.1,170.8C341,170.8 339.4,170.1 338.8,169.7C337.6,169 336.7,168.2 335.9,166.8C335.4,166 335.1,165.5 334.8,164.6C334.2,163 334.2,161.8 334.4,159.9C334.5,159.1 334.6,158.4 334.7,158.4C334.7,158.5 334.9,158.5 335.2,158.7Z" style="fill:rgb(237,28,36);fill-opacity:0.4;fill-rule:nonzero;"/>
        <path d="M399.3,173.6C396.9,173.4 394.7,173.7 392.9,174.4C391,175.2 389.4,176.3 388.4,177.6C387.8,178.4 387,179.6 386.9,179.9C386.9,180 386.8,180.2 386.8,180.3C386.5,180.7 386.6,181.2 386.9,181.6C387.4,182.3 389,183.1 390.6,183.6C392.5,184.2 395.5,184 398,183.1C399.5,182.6 401,181.6 402.1,180.4C403,179.5 403.9,177.9 404.1,176.9C404.2,176.6 404.2,176.1 404.1,175.7C403.9,175.1 403.5,174.6 402.9,174.3C402.1,174.1 400.3,173.7 399.3,173.6ZM401.7,176.3C401.8,176.3 401.9,176.4 401.9,176.4C401.9,176.5 401.6,177.2 401.3,177.7C400.2,179.5 398.5,180.7 396.1,181.3C395.3,181.5 393.7,181.7 393,181.7C391.7,181.7 390.5,181.4 389.3,180.8C389,180.6 388.9,180.6 388.9,180.5C388.9,180.4 389.5,179.5 389.9,179C390.8,177.8 392.3,176.8 394.1,176.2C395.3,175.8 397.2,175.6 398.6,175.7C398.9,175.7 399.3,175.8 399.4,175.8C399.7,175.8 401.5,176.2 401.7,176.3Z" style="fill:rgb(237,28,36);fill-opacity:0.4;fill-rule:nonzero;"/>
        <path d="M345.1,174.3C344.5,174.2 344.2,174.3 343.6,174.4C342.6,174.6 341.8,175 341.2,175.4C340.4,176.1 339.6,177.5 339.4,178.7C339.1,180.3 339.5,181.9 340.5,183.1C341.4,184.2 343.1,185 344.4,185C345.6,185 346.7,184.7 347.8,183.9C348.7,183.3 349.3,182.5 349.8,181.1C350.6,179.1 350.2,177.8 348.8,176.1C348.1,175.3 347.4,174.9 346.3,174.5C345.8,174.3 345.8,174.3 345.1,174.3Z" style="fill:rgb(237,28,36);fill-opacity:0.4;fill-rule:nonzero;"/>
        <path d="M380.1,182L379,182C377.7,182.1 376,183 375.3,183.9C374.5,184.9 373.9,186.6 374,187.9C374.1,189.6 375,190.9 376.7,191.7C377.7,192.2 378.4,192.4 379.4,192.3C380,192.3 380.9,192 381.4,191.8C382.1,191.4 382.9,190.8 383.4,190.2C383.9,189.5 384.4,188.5 384.6,187.6C384.7,186.9 384.7,186.4 384.6,185.9C384.5,185.5 384.4,185.4 384,184.8C383.2,183.6 382.6,183.1 381.6,182.6C381.4,182.3 380.4,182.1 380.1,182Z" style="fill:rgb(237,28,36);fill-opacity:0.4;fill-rule:nonzero;"/>
        <path d="M355.8,199.9C354.1,199.8 352.5,200 350.5,200.5C348.7,201 347.9,201.3 346.7,202C343.6,203.8 341.6,205.9 340.4,208.5C340.1,209.2 339.7,210.2 339.3,211.1C339,212 338.4,214.8 338.4,215.6C338.3,217.3 338.6,219.3 339,220.7C339.8,223.3 340.7,224.7 343.1,226.5C345.2,228.1 346.6,229 348.4,229.6C350.7,230.4 352.5,230.8 354.1,230.9C356.3,231 359.1,230.3 361.1,229.2C361.7,228.9 363,228 363.4,227.6C363.9,227.2 364.9,226.2 365.3,225.7C366.2,224.7 367.1,223.3 367.7,221.9C368.4,220.4 369.3,217.2 369.4,215.7C369.5,214.6 369.5,213 369.3,212.1C369.2,211.6 368.9,210.6 368.8,210.3C368.7,210.1 368.6,209.8 368.5,209.6C368.2,208.7 367.8,208.1 366.8,206.8C366,205.7 364.6,204.2 363.8,203.4C362.4,202.1 360.9,201.2 358.8,200.4C358,200.3 356.5,200 355.8,199.9ZM351.4,208.5C351.9,208.7 352.1,209 352.1,209.4C352.2,209.7 352.2,209.8 352.1,210.3C351.9,211 351.8,211.3 351.4,211.7C351.1,211.9 351,212 350.6,212.1C350.2,212.2 350.1,212.2 349.7,212.1C349.3,212 349.2,211.9 348.7,211.5C348.4,211.2 348.2,210.4 348.3,209.9C348.4,209.6 348.6,209.2 348.8,208.9C349.1,208.5 349.7,208.3 350.4,208.3C351,208.4 351,208.4 351.4,208.5Z" style="fill:rgb(237,28,36);fill-opacity:0.4;fill-rule:nonzero;"/>
    </g>
</svg>
