<?xml version="1.0" encoding="UTF-8" standalone="no"?>
<!DOCTYPE svg PUBLIC "-//W3C//DTD SVG 1.1//EN" "http://www.w3.org/Graphics/SVG/1.1/DTD/svg11.dtd">
<svg width="100%" height="100%" viewBox="0 0 559 326" version="1.1" xmlns="http://www.w3.org/2000/svg" xmlns:xlink="http://www.w3.org/1999/xlink" xml:space="preserve" xmlns:serif="http://www.serif.com/" style="fill-rule:evenodd;clip-rule:evenodd;stroke-linejoin:round;stroke-miterlimit:2;">
    <g>
        <path d="M484.8,180L484.6,179.9C461.7,168.1 443.9,161.7 429.9,159.2C424.2,153.6 417.7,148.7 411.1,144.5C407.6,142.3 404.1,140.2 400.7,138.4L404,130.4L404.7,128.7C404.8,128.4 404.5,127.9 403.9,127.7L376,116.3C375.4,116.1 374.8,116.1 374.7,116.5L374,118.2L371,125.4C367.3,124.1 365,123.4 365,123.4C327.8,112 292.8,114.3 264.9,120.8L261.8,111.2L261.2,109.5C261.1,109.2 260.5,109 259.9,109.2L231.4,118.4C230.8,118.6 230.4,119 230.5,119.4L231.1,121.1L234.1,130.3C215.5,137.5 203.9,144.8 202.4,145.7C193.3,150.7 184.8,154.8 177,158.2C183,146.5 187.3,134.6 188.8,122.7C190.9,106.1 187.4,89.5 175.9,74.7L175.7,74.5C175.6,74.4 171.6,70.2 165.1,66.1C157.8,61.5 147.2,56.7 135,58C129.6,58.6 124,60.4 118.3,63.9L110.3,55.9C110,55.7 109.5,55.8 109,56.3L87.9,77.3C87.5,77.7 87.3,78.3 87.5,78.6L96.4,87.5C92.8,93.5 89.3,100.5 85.9,108.7C82.6,116.8 80.8,128.1 82.2,139.3L72.8,143.8L71.2,144.6C70.9,144.8 70.8,145.3 71.1,145.9L84.2,172.9C84.5,173.5 85,173.8 85.3,173.7L86.9,172.9L96.9,168.1C97.9,168.9 99,169.8 100.2,170.5C109.3,176.3 122.1,178.8 139.2,176.2C146.2,175.1 154,173.2 162.5,170.3C137,209.4 93.8,245 73.6,260.3C66.8,265.5 62.6,268.4 62.6,268.4L66.1,273.5C66.2,273.4 90.7,256.4 117.8,231L123.8,237.3L125,238.6C125.2,238.9 125.8,238.7 126.3,238.3L148.1,217.7C148.6,217.3 148.7,216.7 148.5,216.4L147.3,215.1L140.6,208C150.9,196.7 160.8,184.4 168.9,171.8C170,170.1 171,168.5 172,166.8C176.2,165.1 180.7,163.2 185.3,161.1L190,169.9L190.9,171.5C191.1,171.8 191.7,171.8 192.2,171.5L218.6,157.3C219.2,157 219.5,156.5 219.3,156.2L218.4,154.6L213.9,146.2C215.2,145.5 216.6,144.8 218.2,144C226.4,139.9 238.2,134.8 252.7,130.4C266.4,126.3 282.4,122.9 300,121.9L299.8,131.6L299.8,133.4C299.8,133.8 300.3,134.1 300.9,134.1L330.9,134.8C331.5,134.8 332.1,134.5 332.1,134.2L332.1,132.4L332.3,122.9C342.4,124.1 352.7,126.2 363.2,129.4C363.2,129.4 364.6,129.8 367.1,130.7C369.6,131.5 373.2,132.9 377.4,134.5C385.9,137.9 397,143.1 407.6,149.8C411.6,152.3 415.5,155.1 419.1,158.1C404.3,157.5 394.6,162.8 389.5,170.8C385,177.9 384,186.5 384.6,194.6C384.7,195.8 384.8,197 385,198.2L375.3,202.4L373.6,203.1C373.3,203.2 373.2,203.8 373.5,204.4L385.4,231.9C385.7,232.5 386.1,232.8 386.4,232.7L388.1,232L397.2,228C399.7,231.1 402.2,233.4 404.9,235.1C412.4,240 420.5,239.2 426.7,236.2C430.4,234.4 433.5,232 436.1,229.4L443.7,233.7L445.3,234.6C445.6,234.8 446.1,234.5 446.4,233.9L461.2,207.8C461.5,207.2 461.5,206.7 461.2,206.5L459.6,205.6L450,200C449.7,199.8 449.2,200.1 448.9,200.7L448,202.3C448.9,192.5 446.8,183.6 442.5,175.6C440.9,172.6 439,169.8 436.9,167.1C448.7,170.2 463.5,176 481.5,185.3C481.8,185.5 482.7,186.1 484.1,187.1C485.8,188.3 488.3,190.2 491.4,192.7C492.2,193.3 494.2,195.4 495,196.2C496.4,194.7 497,192 498.7,190.8C490.6,183.8 484.8,180.1 484.8,180ZM167.8,161.8C156.5,166.1 146.7,168.8 138.3,170C122.2,172.4 111.1,170 103.5,165.2C94.3,159.4 89.9,149.7 88.4,139.3C87,129 88.7,118.1 91.6,111C95.2,102 99,94.7 102.9,88.6C114.1,71.1 125.5,65.1 135.5,64C145.6,62.9 154.9,66.9 161.6,71.2C166,74 169.2,76.9 170.4,78.1C170.6,78.3 170.8,78.5 170.9,78.6C181.3,92.2 184.3,106.7 182.4,121.9C180.9,134.9 175.5,148.4 167.8,161.8ZM437,178.6C443.1,190.1 444.4,203.1 436.6,218.8C436.4,219.3 436.1,219.8 435.7,220.4L435.6,220.5C433.4,224 429.1,228.3 424.2,230.6C419.2,232.9 414,233.4 408.4,229.9C404.3,227.3 399.8,222.1 395.6,213.1C393.4,208.4 391.4,201.3 390.8,194C390.2,186.7 391.3,179.4 394.7,174C398.7,167.9 405.7,163.6 419.4,164.2C421.7,164.3 424.1,164.5 426.7,165C430.9,169.2 434.5,173.7 437,178.6Z" style="fill-opacity:0.4;fill-rule:nonzero;"/>
        <path d="M196.6,191C193.2,184.7 192.4,177.9 193.7,172.1L217.5,159.3C223.1,161.4 228.3,165.9 231.7,172.1C238.1,184 248.2,221.7 238.5,226.9C228.8,232.1 203.1,202.9 196.6,191Z" style="fill:rgb(244,130,43);fill-opacity:0.4;fill-rule:nonzero;"/>
        <path d="M225.8,177.2C233,184.3 234.7,196.7 234.7,206.4C234.7,207.5 233.4,207.9 233,206.7C229.6,197.2 230.2,187.3 224.5,178.5C223.8,177.5 225,176.4 225.8,177.2Z" style="fill:white;fill-opacity:0.4;fill-rule:nonzero;"/>
        <path d="M295.2,153.2C295.4,146.1 298,139.7 302.1,135.3L329.1,136C332.9,140.6 335.3,147 335.1,154.2C334.8,167.7 324.9,205.4 313.9,205.2C302.8,204.8 294.8,166.7 295.2,153.2Z" style="fill:rgb(58,173,4);fill-opacity:0.4;fill-rule:nonzero;"/>
        <path d="M327.3,155.6C330,165.3 325.5,176.9 320.6,185.4C320,186.4 318.8,186.1 319,184.8C320.7,174.9 326.1,166.6 325.5,156.1C325.5,154.9 327,154.5 327.3,155.6Z" style="fill:white;fill-opacity:0.4;fill-rule:nonzero;"/>
        <path d="M135.8,256C130.9,250.8 128.3,244.5 128.1,238.5L147.7,220C153.6,220.5 159.8,223.5 164.7,228.7C174,238.6 193.5,272.3 185.6,279.8C177.7,287.3 145.2,265.8 135.8,256Z" style="fill:rgb(247,6,6);fill-opacity:0.4;fill-rule:nonzero;"/>
        <path d="M160.4,235.1C169.2,240.1 174.1,251.5 176.6,261C176.9,262.1 175.8,262.7 175,261.7C169.2,253.4 167.2,243.8 159.5,236.7C158.6,235.8 159.4,234.5 160.4,235.1Z" style="fill:white;fill-opacity:0.4;fill-rule:nonzero;"/>
        <path d="M416,111.9C413.3,118.5 408.5,123.5 403.2,126.1L378.2,115.8C376.3,110.2 376.4,103.3 379.1,96.7C384.3,84.2 407,52.5 417.1,56.7C427.3,60.9 421.1,99.3 416,111.9Z" style="fill:rgb(247,6,6);fill-opacity:0.4;fill-rule:nonzero;"/>
        <path d="M386.8,98.1C387.8,88 396.2,78.9 403.7,72.7C404.6,72 405.6,72.7 405,73.8C399.9,82.5 391.8,88.3 388.6,98.2C388.3,99.4 386.7,99.2 386.8,98.1Z" style="fill:white;fill-opacity:0.4;fill-rule:nonzero;"/>
        <path d="M99.1,38.6C104.1,43.6 106.9,49.9 107.3,55.9L88.3,75C82.3,74.6 76.1,71.9 71,66.8C61.4,57.2 40.9,24.1 48.6,16.3C56.4,8.6 89.5,29.1 99.1,38.6Z" style="fill:rgb(249,208,3);fill-opacity:0.4;fill-rule:nonzero;"/>
        <path d="M75.2,60.3C66.3,55.6 61,44.3 58.2,34.9C57.9,33.8 59,33.1 59.7,34.2C65.7,42.3 68,51.9 76,58.7C77,59.4 76.3,60.8 75.2,60.3Z" style="fill:white;fill-opacity:0.4;fill-rule:nonzero;"/>
        <path d="M51.4,149.5C57.8,146.4 64.7,145.9 70.4,147.5L82.1,171.8C79.8,177.3 75.1,182.3 68.7,185.4C56.5,191.3 18.5,199.8 13.7,189.8C9,179.9 39.2,155.4 51.4,149.5Z" style="fill:rgb(58,173,4);fill-opacity:0.4;fill-rule:nonzero;"/>
        <path d="M63.9,179.2C56.5,186.1 44.1,187.3 34.3,186.8C33.2,186.7 32.9,185.5 34.1,185.1C43.7,182.1 53.6,183.1 62.6,177.8C63.8,177.2 64.8,178.4 63.9,179.2Z" style="fill:white;fill-opacity:0.4;fill-rule:nonzero;"/>
        <path d="M259.1,89.1C261.3,95.9 260.9,102.7 258.5,108.2L232.8,116.5C227.7,113.4 223.3,108.1 221.2,101.3C217.1,88.4 213.9,49.6 224.4,46.2C234.8,42.8 254.9,76.2 259.1,89.1Z" style="fill:rgb(47,94,244);fill-opacity:0.4;fill-rule:nonzero;"/>
        <path d="M227.9,97.4C222.1,89.1 222.6,76.7 224.4,67.1C224.6,66 225.9,65.9 226.1,67.1C227.8,77 225.4,86.7 229.4,96.3C229.9,97.5 228.6,98.4 227.9,97.4Z" style="fill:white;fill-opacity:0.4;fill-rule:nonzero;"/>
        <path d="M353.9,207.2C360.4,204.4 367.3,204.1 373,205.9L383.7,230.7C381.2,236.1 376.3,240.9 369.7,243.8C357.3,249.2 318.9,256 314.5,245.9C310.1,235.8 341.4,212.6 353.9,207.2Z" style="fill:rgb(249,208,3);fill-opacity:0.4;fill-rule:nonzero;"/>
        <path d="M365.1,237.4C357.4,244 345,244.7 335.2,243.8C334.1,243.7 333.8,242.4 335.1,242.1C344.8,239.5 354.6,240.9 363.9,236C365,235.4 366,236.6 365.1,237.4Z" style="fill:white;fill-opacity:0.4;fill-rule:nonzero;"/>
        <path d="M460.8,248.1C454.6,244.6 450.3,239.2 448.3,233.6L461.7,210.2C467.5,209 474.3,210 480.5,213.5C492.3,220.2 520.8,246.7 515.3,256.3C509.9,265.9 472.6,254.8 460.8,248.1Z" style="fill:rgb(244,130,43);fill-opacity:0.4;fill-rule:nonzero;"/>
        <path d="M478.2,221C488.1,223.2 496.1,232.7 501.3,241C501.9,241.9 501,242.9 500,242.1C492,235.9 487.3,227.2 477.9,222.7C476.7,222.2 477.1,220.7 478.2,221Z" style="fill:white;fill-opacity:0.4;fill-rule:nonzero;"/>
    </g>
</svg>
